<?xml version="1.0" encoding="utf-8"?>
<!-- Generator: Adobe Illustrator 17.0.0, SVG Export Plug-In . SVG Version: 6.00 Build 0)  -->
<!DOCTYPE svg PUBLIC "-//W3C//DTD SVG 1.1//EN" "http://www.w3.org/Graphics/SVG/1.1/DTD/svg11.dtd">
<svg version="1.1" id="Layer_1" xmlns="http://www.w3.org/2000/svg" xmlns:xlink="http://www.w3.org/1999/xlink" x="0px" y="0px"
	 width="125px" height="150px" viewBox="0 0 125 150" enable-background="new 0 0 125 150" xml:space="preserve">
<g>
	<rect x="48.916" y="14.987" width="26.947" height="14.803"/>
	
		<rect x="48.916" y="14.987" fill="none" stroke="#FFFFFF" stroke-width="0.3576" stroke-miterlimit="10" width="26.947" height="14.803"/>
	<path d="M75.863,30.863H48.916c-0.592,0-1.072-0.48-1.072-1.072V14.987c0-0.593,0.48-1.073,1.072-1.073h26.947
		c0.592,0,1.072,0.48,1.072,1.073V29.79C76.935,30.382,76.455,30.863,75.863,30.863 M49.989,28.718H74.79V16.06H49.989V28.718z"/>
	<path fill="none" stroke="#FFFFFF" stroke-width="0.3576" stroke-miterlimit="10" d="M75.863,30.863H48.916
		c-0.592,0-1.072-0.48-1.072-1.072V14.987c0-0.593,0.48-1.073,1.072-1.073h26.947c0.592,0,1.072,0.48,1.072,1.073V29.79
		C76.935,30.382,76.455,30.863,75.863,30.863z M49.989,28.718H74.79V16.06H49.989V28.718z"/>
	<path d="M73.871,16.786c-9.458,1.534-13.612,1.58-23.07,0.045c-0.694-1.066-2.05-2.799-1.868-3.976
		c9.096,1.476,17.833,1.578,26.93,0.102C75.084,14.251,74.357,15.899,73.871,16.786"/>
	<path fill="none" stroke="#FFFFFF" stroke-width="0.3576" stroke-miterlimit="10" d="M73.871,16.786
		c-9.458,1.534-13.612,1.58-23.07,0.045c-0.694-1.066-2.05-2.799-1.868-3.976c9.096,1.476,17.833,1.578,26.93,0.102
		C75.084,14.251,74.357,15.899,73.871,16.786z"/>
	<path d="M92.049,16.974l-15.745-4.118h-0.78c-1.5,5.753-6.932,11.36-13.409,11.36c-6.476,0-11.908-5.61-13.409-11.36h-0.289
		l-15.909,4.118c0,31.492-0.178,92.05-0.178,92.05s18.054,2.563,30.898,2.503c12.844-0.06,29.163-2.503,29.163-2.503
		S90.45,43.236,92.049,16.974"/>
	<path fill="none" stroke="#FFFFFF" stroke-width="0.3576" stroke-miterlimit="10" d="M92.049,16.974l-15.745-4.118h-0.78
		c-1.5,5.753-6.932,11.36-13.409,11.36c-6.476,0-11.908-5.61-13.409-11.36h-0.289l-15.909,4.118c0,31.492-0.178,92.05-0.178,92.05
		s18.054,2.563,30.898,2.503c12.844-0.06,29.163-2.503,29.163-2.503S90.45,43.236,92.049,16.974z"/>
	<path d="M62.116,29.22c-4.146,0-8.313-1.64-11.735-4.618c-3.239-2.819-5.296-6.399-5.643-9.821
		c-0.06-0.589,0.369-1.115,0.959-1.175c0.589-0.061,1.115,0.369,1.175,0.958c0.289,2.843,2.127,5.99,4.917,8.419
		c3.032,2.639,6.699,4.091,10.327,4.091c3.965,0,7.828-1.51,10.878-4.253c2.723-2.449,4.522-5.668,4.813-8.612
		c0.058-0.59,0.584-1.021,1.173-0.962c0.589,0.058,1.02,0.583,0.961,1.173C79.249,21.42,71.758,29.22,62.116,29.22"/>
	<path fill="none" stroke="#FFFFFF" stroke-width="0.3576" stroke-miterlimit="10" d="M62.116,29.22
		c-4.146,0-8.313-1.64-11.735-4.618c-3.239-2.819-5.296-6.399-5.643-9.821c-0.06-0.589,0.369-1.115,0.959-1.175
		c0.589-0.061,1.115,0.369,1.175,0.958c0.289,2.843,2.127,5.99,4.917,8.419c3.032,2.639,6.699,4.091,10.327,4.091
		c3.965,0,7.828-1.51,10.878-4.253c2.723-2.449,4.522-5.668,4.813-8.612c0.058-0.59,0.584-1.021,1.173-0.962
		c0.589,0.058,1.02,0.583,0.961,1.173C79.249,21.42,71.758,29.22,62.116,29.22z"/>
	<path d="M32.509,16.974c0,0-19.695,16.109-19.444,23.974l15.566,7.219l3.53-3.287C32.845,21.389,32.509,16.974,32.509,16.974"/>
	<path fill="none" stroke="#FFFFFF" stroke-width="0.3576" stroke-miterlimit="10" d="M32.509,16.974
		c0,0-19.695,16.109-19.444,23.974l15.566,7.219l3.53-3.287C32.845,21.389,32.509,16.974,32.509,16.974z"/>
	<path d="M91.915,16.974c0,0,19.695,16.109,19.444,23.974l-15.566,7.219l-3.53-3.287C91.579,21.389,91.915,16.974,91.915,16.974"/>
	<path fill="none" stroke="#FFFFFF" stroke-width="0.3576" stroke-miterlimit="10" d="M91.915,16.974
		c0,0,19.695,16.109,19.444,23.974l-15.566,7.219l-3.53-3.287C91.579,21.389,91.915,16.974,91.915,16.974z"/>
</g>
<g>
	<path d="M52.097,130.465h-3.049v-2.156h8.725v2.156h-3.1v9.197h-2.577V130.465z"/>
	<path d="M65.893,134.862h-4.178v2.695h4.667v2.105h-7.243v-11.353h7.007v2.105h-4.431v2.358h4.178V134.862z"/>
	<path d="M74.888,134.862H70.71v2.695h4.666v2.105h-7.243v-11.353h7.007v2.105h-4.43v2.358h4.178V134.862z"/>
</g>
</svg>
