<?xml version="1.0" encoding="utf-8"?>
<!-- Generator: Adobe Illustrator 17.0.0, SVG Export Plug-In . SVG Version: 6.00 Build 0)  -->
<!DOCTYPE svg PUBLIC "-//W3C//DTD SVG 1.1//EN" "http://www.w3.org/Graphics/SVG/1.1/DTD/svg11.dtd">
<svg version="1.1" id="Layer_1" xmlns="http://www.w3.org/2000/svg" xmlns:xlink="http://www.w3.org/1999/xlink" x="0px" y="0px"
	 width="125px" height="150px" viewBox="0 0 125 150" enable-background="new 0 0 125 150" xml:space="preserve">
<path d="M73.222,20.172c-9.256,1.501-11.773,1.452-21.029-0.049c-0.679-1.044-2.301-6.877-2.31-7.268
	c8.924,1.448,17.486,1.44,26.366,0C75.487,14.121,74.022,19.422,73.222,20.172"/>
<path fill="none" stroke="#FFFFFF" stroke-width="0.3262" stroke-miterlimit="10" d="M73.222,20.172
	c-9.256,1.501-11.773,1.452-21.029-0.049c-0.679-1.044-2.301-6.877-2.31-7.268c8.924,1.448,17.486,1.44,26.366,0
	C75.487,14.121,74.022,19.422,73.222,20.172z"/>
<g>
	<rect x="49.941" y="20.059" width="26.355" height="14.582"/>
	
		<rect x="49.941" y="20.059" fill="none" stroke="#FFFFFF" stroke-width="0.3262" stroke-miterlimit="10" width="26.355" height="14.582"/>
	<path d="M76.296,35.691H49.941c-0.579,0-1.05-0.47-1.05-1.049V20.059c0-0.58,0.47-1.05,1.05-1.05h26.355
		c0.58,0,1.05,0.47,1.05,1.05v14.582C77.345,35.221,76.875,35.691,76.296,35.691 M50.991,33.592h24.255V21.109H50.991V33.592z"/>
	<path fill="none" stroke="#FFFFFF" stroke-width="0.3262" stroke-miterlimit="10" d="M76.296,35.691H49.941
		c-0.579,0-1.05-0.47-1.05-1.049V20.059c0-0.58,0.47-1.05,1.05-1.05h26.355c0.58,0,1.05,0.47,1.05,1.05v14.582
		C77.345,35.221,76.875,35.691,76.296,35.691z M50.991,33.592h24.255V21.109H50.991V33.592z"/>
	<path d="M91.961,21.529l-15.744-4.03h-0.283c-1.439,5.516-12.666,10.9-13.107,11.11c-0.442-0.21-11.668-5.594-13.108-11.11h-0.282
		l-15.744,4.03c2.383,5.822,0,90.084,0,90.084s16.607,2.357,29.074,2.448v0.001c0.02,0,0.04,0,0.059,0c0.019,0,0.039,0,0.059,0
		v-0.001c12.468-0.091,29.075-2.448,29.075-2.448S89.578,27.351,91.961,21.529"/>
	<path fill="none" stroke="#FFFFFF" stroke-width="0.3262" stroke-miterlimit="10" d="M91.961,21.529l-15.744-4.03h-0.283
		c-1.439,5.516-12.666,10.9-13.107,11.11c-0.442-0.21-11.668-5.594-13.108-11.11h-0.282l-15.744,4.03c2.383,5.822,0,90.084,0,90.084
		s16.607,2.357,29.074,2.448v0.001c0.02,0,0.04,0,0.059,0c0.019,0,0.039,0,0.059,0v-0.001c12.468-0.091,29.075-2.448,29.075-2.448
		S89.578,27.351,91.961,21.529z"/>
	<polygon points="65.035,44.642 60.857,44.642 60.857,29.774 62.827,28.609 65.035,29.774 	"/>
	<polygon fill="none" stroke="#FFFFFF" stroke-width="0.3262" stroke-miterlimit="10" points="65.035,44.642 60.857,44.642 
		60.857,29.774 62.827,28.609 65.035,29.774 	"/>
	<path d="M33.694,21.529c0,0-18.033,15.569-17.787,23.266l15.233,7.065l3.455-3.217C35.264,25.653,33.694,21.529,33.694,21.529"/>
	<path fill="none" stroke="#FFFFFF" stroke-width="0.3262" stroke-miterlimit="10" d="M33.694,21.529
		c0,0-18.033,15.569-17.787,23.266l15.233,7.065l3.455-3.217C35.264,25.653,33.694,21.529,33.694,21.529z"/>
	<path d="M91.961,21.529c0,0,18.033,15.569,17.787,23.266L94.516,51.86l-3.455-3.217C90.392,25.653,91.961,21.529,91.961,21.529"/>
	<path fill="none" stroke="#FFFFFF" stroke-width="0.3262" stroke-miterlimit="10" d="M91.961,21.529
		c0,0,18.033,15.569,17.787,23.266L94.516,51.86l-3.455-3.217C90.392,25.653,91.961,21.529,91.961,21.529z"/>
	<path d="M63.458,32.775c0,0.242-0.196,0.437-0.437,0.437s-0.437-0.196-0.437-0.437c0-0.242,0.196-0.437,0.437-0.437
		S63.458,32.533,63.458,32.775"/>
	<circle fill="none" stroke="#FFFFFF" stroke-width="0.3262" stroke-miterlimit="10" cx="63.02" cy="32.775" r="0.437"/>
	<path d="M63.458,36.011c0,0.242-0.196,0.437-0.437,0.437s-0.437-0.196-0.437-0.437c0-0.242,0.196-0.437,0.437-0.437
		S63.458,35.77,63.458,36.011"/>
	<circle fill="none" stroke="#FFFFFF" stroke-width="0.3262" stroke-miterlimit="10" cx="63.02" cy="36.011" r="0.437"/>
	<path d="M63.458,38.941c0,0.242-0.196,0.437-0.437,0.437s-0.437-0.196-0.437-0.437c0-0.242,0.196-0.437,0.437-0.437
		S63.458,38.7,63.458,38.941"/>
	<circle fill="none" stroke="#FFFFFF" stroke-width="0.3262" stroke-miterlimit="10" cx="63.02" cy="38.941" r="0.437"/>
	<path d="M63.458,42.177c0,0.242-0.196,0.437-0.437,0.437s-0.437-0.196-0.437-0.437c0-0.242,0.196-0.437,0.437-0.437
		S63.458,41.936,63.458,42.177"/>
	<circle fill="none" stroke="#FFFFFF" stroke-width="0.3262" stroke-miterlimit="10" cx="63.02" cy="42.177" r="0.437"/>
	<polygon points="95.286,51.699 96.578,54.401 111.489,47.333 110.151,44.642 	"/>
	<polygon fill="none" stroke="#FFFFFF" stroke-width="0.3262" stroke-miterlimit="10" points="95.286,51.699 96.578,54.401 
		111.489,47.333 110.151,44.642 	"/>
	<polygon points="30.846,51.699 29.554,54.401 14.642,47.333 15.981,44.642 	"/>
	<polygon fill="none" stroke="#FFFFFF" stroke-width="0.3262" stroke-miterlimit="10" points="30.846,51.699 29.554,54.401 
		14.642,47.333 15.981,44.642 	"/>
	<polygon points="62.828,28.609 52.618,34.642 43.478,18.714 49.645,12.855 	"/>
	<polygon fill="none" stroke="#FFFFFF" stroke-width="0.3262" stroke-miterlimit="10" points="62.828,28.609 52.618,34.642 
		43.478,18.714 49.645,12.855 	"/>
	<polygon points="62.828,28.609 73.037,34.642 82.177,18.714 76.011,12.855 	"/>
	<polygon fill="none" stroke="#FFFFFF" stroke-width="0.3262" stroke-miterlimit="10" points="62.828,28.609 73.037,34.642 
		82.177,18.714 76.011,12.855 	"/>
</g>
<g>
	<path d="M18.664,128.646c0.791-0.135,1.904-0.236,3.47-0.236c1.584,0,2.712,0.303,3.47,0.91c0.725,0.572,1.213,1.516,1.213,2.627
		c0,1.112-0.371,2.055-1.045,2.695c-0.876,0.826-2.173,1.196-3.689,1.196c-0.337,0-0.64-0.017-0.876-0.051v4.059h-2.544V128.646z
		 M21.208,133.801c0.219,0.051,0.488,0.067,0.859,0.067c1.364,0,2.206-0.691,2.206-1.853c0-1.045-0.725-1.668-2.005-1.668
		c-0.521,0-0.876,0.051-1.06,0.101V133.801z"/>
	<path d="M38.843,134.053c0,3.723-2.256,5.979-5.575,5.979c-3.37,0-5.34-2.543-5.34-5.777c0-3.402,2.173-5.946,5.525-5.946
		C36.94,128.309,38.843,130.92,38.843,134.053z M30.64,134.205c0,2.224,1.045,3.79,2.763,3.79c1.735,0,2.728-1.651,2.728-3.858
		c0-2.038-0.977-3.79-2.745-3.79C31.651,130.348,30.64,131.998,30.64,134.205z"/>
	<path d="M40.528,128.495h2.577v9.197h4.514v2.156h-7.092V128.495z"/>
	<path d="M58.888,134.053c0,3.723-2.256,5.979-5.575,5.979c-3.37,0-5.34-2.543-5.34-5.777c0-3.402,2.173-5.946,5.525-5.946
		C56.985,128.309,58.888,130.92,58.888,134.053z M50.685,134.205c0,2.224,1.045,3.79,2.763,3.79c1.735,0,2.728-1.651,2.728-3.858
		c0-2.038-0.977-3.79-2.745-3.79C51.696,130.348,50.685,131.998,50.685,134.205z"/>
	<path d="M64.06,137.203c0.69,0.353,1.752,0.707,2.846,0.707c1.179,0,1.803-0.488,1.803-1.23c0-0.707-0.539-1.111-1.904-1.6
		c-1.886-0.657-3.116-1.701-3.116-3.352c0-1.937,1.617-3.419,4.295-3.419c1.28,0,2.224,0.27,2.897,0.573l-0.572,2.072
		c-0.455-0.219-1.264-0.539-2.375-0.539c-1.112,0-1.651,0.505-1.651,1.095c0,0.725,0.64,1.045,2.106,1.6
		c2.005,0.741,2.947,1.785,2.947,3.386c0,1.903-1.465,3.52-4.581,3.52c-1.297,0-2.577-0.337-3.217-0.691L64.06,137.203z"/>
	<path d="M75.648,128.495v4.363h4.229v-4.363h2.56v11.353h-2.56v-4.75h-4.229v4.75h-2.576v-11.353H75.648z"/>
	<path d="M87.254,128.495v11.353h-2.577v-11.353H87.254z"/>
	<path d="M89.478,128.646c0.825-0.135,2.055-0.236,3.419-0.236c1.685,0,2.864,0.253,3.672,0.892
		c0.674,0.539,1.045,1.331,1.045,2.375c0,1.449-1.028,2.443-2.005,2.796v0.051c0.792,0.32,1.23,1.078,1.516,2.123
		c0.354,1.28,0.708,2.762,0.927,3.2h-2.627c-0.186-0.32-0.456-1.246-0.792-2.645c-0.302-1.415-0.791-1.803-1.836-1.819h-0.775v4.464
		h-2.543V128.646z M92.021,133.531h1.011c1.279,0,2.037-0.64,2.037-1.634c0-1.045-0.707-1.567-1.886-1.584
		c-0.623,0-0.977,0.051-1.162,0.084V133.531z"/>
	<path d="M101.791,130.651h-3.049v-2.156h8.725v2.156h-3.1v9.197h-2.577V130.651z"/>
</g>
</svg>
