<?xml version="1.0" encoding="utf-8"?>
<!-- Generator: Adobe Illustrator 17.0.0, SVG Export Plug-In . SVG Version: 6.00 Build 0)  -->
<!DOCTYPE svg PUBLIC "-//W3C//DTD SVG 1.1//EN" "http://www.w3.org/Graphics/SVG/1.1/DTD/svg11.dtd">
<svg version="1.1" id="Layer_1" xmlns="http://www.w3.org/2000/svg" xmlns:xlink="http://www.w3.org/1999/xlink" x="0px" y="0px"
	 width="125px" height="150px" viewBox="0 0 125 150" enable-background="new 0 0 125 150" xml:space="preserve">
<g>
	<path d="M110.177,53.18c-3.896-11.828-10.208-26.137-14.613-28.356c-8.187-4.123-21.831-6.597-32.356-6.597
		c-10.525,0-24.17,2.473-32.356,6.597c-4.404,2.218-10.717,16.528-14.612,28.356L30.34,64.611c2.028-3.466,4.215-6.523,4.215-6.523
		l-1.169,55.941c6.893,4.572,17.902,6.938,29.822,6.938c11.92,0,22.929-2.366,29.822-6.938l-1.17-55.941
		c0,0,2.187,3.057,4.216,6.523L110.177,53.18z"/>
	<path fill="none" stroke="#FFFFFF" stroke-width="0.7507" stroke-miterlimit="10" d="M110.177,53.18
		c-3.896-11.828-10.208-26.137-14.613-28.356c-8.187-4.123-21.831-6.597-32.356-6.597c-10.525,0-24.17,2.473-32.356,6.597
		c-4.404,2.218-10.717,16.528-14.612,28.356L30.34,64.611c2.028-3.466,4.215-6.523,4.215-6.523l-1.169,55.941
		c6.893,4.572,17.902,6.938,29.822,6.938c11.92,0,22.929-2.366,29.822-6.938l-1.17-55.941c0,0,2.187,3.057,4.216,6.523
		L110.177,53.18z"/>
	<path d="M95.564,24.824c-8.187-4.124-21.831-6.597-32.357-6.597l1.212,3.891c7.36,0.351,21.624,3.659,29.863,7.342
		C94.981,26.482,95.564,24.824,95.564,24.824"/>
	<path fill="none" stroke="#FFFFFF" stroke-width="0.7507" stroke-miterlimit="10" d="M95.564,24.824
		c-8.187-4.124-21.831-6.597-32.357-6.597l1.212,3.891c7.36,0.351,21.624,3.659,29.863,7.342
		C94.981,26.482,95.564,24.824,95.564,24.824z"/>
	<path d="M30.852,24.824c8.186-4.124,21.831-6.597,32.356-6.597l-1.211,3.891c-7.36,0.351-21.624,3.659-29.863,7.342
		C31.435,26.482,30.852,24.824,30.852,24.824"/>
	<path fill="none" stroke="#FFFFFF" stroke-width="0.7507" stroke-miterlimit="10" d="M30.852,24.824
		c8.186-4.124,21.831-6.597,32.356-6.597l-1.211,3.891c-7.36,0.351-21.624,3.659-29.863,7.342
		C31.435,26.482,30.852,24.824,30.852,24.824z"/>
	<path d="M65.084,120.943V26.227h-3.753v94.716c0.623,0.013,1.247,0.023,1.876,0.023C63.837,120.966,64.461,120.956,65.084,120.943"
		/>
	<path fill="none" stroke="#FFFFFF" stroke-width="0.7507" stroke-miterlimit="10" d="M65.084,120.943V26.227h-3.753v94.716
		c0.623,0.013,1.247,0.023,1.876,0.023C63.837,120.966,64.461,120.956,65.084,120.943z"/>
	<path d="M63.208,26.227c3.293,1.787,8.52,5.808,9.86,8.422c3.753-7.238,3.016-14.208,2.145-16.821
		c-0.871-2.614-1.341-4.973-11.192-4.973L63.208,26.227z"/>
	<path fill="none" stroke="#FFFFFF" stroke-width="0.7507" stroke-miterlimit="10" d="M63.208,26.227
		c3.293,1.787,8.52,5.808,9.86,8.422c3.753-7.238,3.016-14.208,2.145-16.821c-0.871-2.614-1.341-4.973-11.192-4.973L63.208,26.227z"
		/>
	<path d="M63.208,26.227c-3.293,1.787-8.52,5.808-9.86,8.422c-3.753-7.238-3.016-14.208-2.145-16.821
		c0.871-2.614,1.34-4.973,11.192-4.973L63.208,26.227z"/>
	<path fill="none" stroke="#FFFFFF" stroke-width="0.7507" stroke-miterlimit="10" d="M63.208,26.227
		c-3.293,1.787-8.52,5.808-9.86,8.422c-3.753-7.238-3.016-14.208-2.145-16.821c0.871-2.614,1.34-4.973,11.192-4.973L63.208,26.227z"
		/>
	<path d="M63.208,12.855c-5.66,0-8.973,0.71-8.973,2.367c0,1.657,3.754,8.052,8.973,11.006c5.22-2.954,8.973-9.349,8.973-11.006
		C72.181,13.565,68.868,12.855,63.208,12.855"/>
	<path fill="none" stroke="#FFFFFF" stroke-width="0.7507" stroke-miterlimit="10" d="M63.208,12.855
		c-5.66,0-8.973,0.71-8.973,2.367c0,1.657,3.754,8.052,8.973,11.006c5.22-2.954,8.973-9.349,8.973-11.006
		C72.181,13.565,68.868,12.855,63.208,12.855z"/>
	<path d="M63.208,17.68c3.497,0,6.094,0.271,7.571,0.87c0.895-1.476,1.402-2.721,1.402-3.328c0-1.657-3.314-2.367-8.973-2.367
		c-5.66,0-8.973,0.71-8.973,2.367c0,0.607,0.507,1.852,1.402,3.328C57.114,17.952,59.712,17.68,63.208,17.68"/>
	<path fill="none" stroke="#FFFFFF" stroke-width="0.7507" stroke-miterlimit="10" d="M63.208,17.68c3.497,0,6.094,0.271,7.571,0.87
		c0.895-1.476,1.402-2.721,1.402-3.328c0-1.657-3.314-2.367-8.973-2.367c-5.66,0-8.973,0.71-8.973,2.367
		c0,0.607,0.507,1.852,1.402,3.328C57.114,17.952,59.712,17.68,63.208,17.68z"/>
	<path d="M63.902,30.502c0,0.383-0.31,0.694-0.694,0.694c-0.383,0-0.693-0.311-0.693-0.694c0-0.383,0.31-0.693,0.693-0.693
		C63.591,29.809,63.902,30.119,63.902,30.502"/>
	<circle fill="none" stroke="#FFFFFF" stroke-width="0.7507" stroke-miterlimit="10" cx="63.208" cy="30.502" r="0.694"/>
	<path d="M63.902,43.38c0,0.383-0.31,0.694-0.694,0.694c-0.383,0-0.693-0.311-0.693-0.694c0-0.383,0.31-0.693,0.693-0.693
		C63.591,42.686,63.902,42.997,63.902,43.38"/>
	<circle fill="none" stroke="#FFFFFF" stroke-width="0.7507" stroke-miterlimit="10" cx="63.208" cy="43.38" r="0.694"/>
	<path d="M63.902,56.258c0,0.383-0.31,0.694-0.694,0.694c-0.383,0-0.693-0.311-0.693-0.694c0-0.383,0.31-0.694,0.693-0.694
		C63.591,55.564,63.902,55.875,63.902,56.258"/>
	<circle fill="none" stroke="#FFFFFF" stroke-width="0.7507" stroke-miterlimit="10" cx="63.208" cy="56.258" r="0.694"/>
	<path d="M63.902,69.135c0,0.383-0.31,0.694-0.694,0.694c-0.383,0-0.693-0.311-0.693-0.694c0-0.383,0.31-0.694,0.693-0.694
		C63.591,68.442,63.902,68.752,63.902,69.135"/>
	<circle fill="none" stroke="#FFFFFF" stroke-width="0.7507" stroke-miterlimit="10" cx="63.208" cy="69.135" r="0.694"/>
	<path d="M63.902,82.013c0,0.383-0.31,0.694-0.694,0.694c-0.383,0-0.693-0.311-0.693-0.694c0-0.383,0.31-0.693,0.693-0.693
		C63.591,81.32,63.902,81.63,63.902,82.013"/>
	<circle fill="none" stroke="#FFFFFF" stroke-width="0.7507" stroke-miterlimit="10" cx="63.208" cy="82.013" r="0.694"/>
	<path d="M63.902,94.891c0,0.383-0.31,0.694-0.694,0.694c-0.383,0-0.693-0.311-0.693-0.694c0-0.383,0.31-0.694,0.693-0.694
		C63.591,94.197,63.902,94.508,63.902,94.891"/>
	<circle fill="none" stroke="#FFFFFF" stroke-width="0.7507" stroke-miterlimit="10" cx="63.208" cy="94.891" r="0.694"/>
	<path d="M63.902,107.769c0,0.383-0.31,0.694-0.694,0.694c-0.383,0-0.693-0.311-0.693-0.694c0-0.383,0.31-0.694,0.693-0.694
		C63.591,107.075,63.902,107.386,63.902,107.769"/>
	<circle fill="none" stroke="#FFFFFF" stroke-width="0.7507" stroke-miterlimit="10" cx="63.208" cy="107.769" r="0.694"/>
	<polygon points="86.698,59.557 79.152,61.702 71.606,59.557 71.606,43.38 86.698,43.38 	"/>
	<polygon fill="none" stroke="#FFFFFF" stroke-width="0.7507" stroke-miterlimit="10" points="86.698,59.557 79.152,61.702 
		71.606,59.557 71.606,43.38 86.698,43.38 	"/>
	<rect x="71.606" y="43.38" width="15.092" height="4.163"/>
	
		<rect x="71.606" y="43.38" fill="none" stroke="#FFFFFF" stroke-width="0.7507" stroke-miterlimit="10" width="15.092" height="4.163"/>
	<path d="M34.019,41.078c-0.975-10.035-3.167-16.254-3.167-16.254c-4.405,2.218-10.717,16.528-14.613,28.356L30.34,64.611
		c2.028-3.466,4.215-6.523,4.215-6.523S34.994,51.113,34.019,41.078"/>
	<path fill="none" stroke="#FFFFFF" stroke-width="0.7507" stroke-miterlimit="10" d="M34.019,41.078
		c-0.975-10.035-3.167-16.254-3.167-16.254c-4.405,2.218-10.717,16.528-14.613,28.356L30.34,64.611
		c2.028-3.466,4.215-6.523,4.215-6.523S34.994,51.113,34.019,41.078z"/>
	<path d="M110.177,53.18c-3.896-11.828-10.208-26.137-14.613-28.356c0,0-2.193,6.219-3.168,16.254
		c-0.974,10.036-0.536,17.01-0.536,17.01s2.187,3.057,4.216,6.523L110.177,53.18z"/>
	<path fill="none" stroke="#FFFFFF" stroke-width="0.7507" stroke-miterlimit="10" d="M110.177,53.18
		c-3.896-11.828-10.208-26.137-14.613-28.356c0,0-2.193,6.219-3.168,16.254c-0.974,10.036-0.536,17.01-0.536,17.01
		s2.187,3.057,4.216,6.523L110.177,53.18z"/>
	<path d="M17.871,48.475c-0.579,1.588-1.126,3.167-1.632,4.704L30.34,64.611c0.864-1.477,1.757-2.878,2.498-4.003L17.871,48.475z"/>
	<path fill="none" stroke="#FFFFFF" stroke-width="0.7507" stroke-miterlimit="10" d="M17.871,48.475
		c-0.579,1.588-1.126,3.167-1.632,4.704L30.34,64.611c0.864-1.477,1.757-2.878,2.498-4.003L17.871,48.475z"/>
	<path d="M96.076,64.611l14.101-11.431c-0.506-1.537-1.053-3.116-1.632-4.704L93.578,60.608
		C94.319,61.732,95.211,63.133,96.076,64.611"/>
	<path fill="none" stroke="#FFFFFF" stroke-width="0.7507" stroke-miterlimit="10" d="M96.076,64.611l14.101-11.431
		c-0.506-1.537-1.053-3.116-1.632-4.704L93.578,60.608C94.319,61.732,95.211,63.133,96.076,64.611z"/>
	<g opacity="0.3">
		<g>
			<defs>
				<rect id="SVGID_1_" x="15.802" y="17.852" width="94.813" height="103.49"/>
			</defs>
			<clipPath id="SVGID_2_">
				<use xlink:href="#SVGID_1_"  overflow="visible"/>
			</clipPath>
			<path clip-path="url(#SVGID_2_)" d="M110.177,53.18c-3.896-11.828-10.208-26.137-14.613-28.356
				c-8.187-4.123-21.831-6.597-32.356-6.597c-10.525,0-24.17,2.473-32.356,6.597c-4.404,2.218-10.717,16.528-14.612,28.356
				L30.34,64.611c2.028-3.466,4.215-6.523,4.215-6.523l-1.169,55.941c6.893,4.572,17.902,6.938,29.822,6.938
				c11.92,0,22.929-2.366,29.822-6.938l-1.17-55.941c0,0,2.187,3.057,4.216,6.523L110.177,53.18z"/>
			<path clip-path="url(#SVGID_2_)" fill="none" stroke="#FFFFFF" stroke-width="0.7507" stroke-miterlimit="10" d="M110.177,53.18
				c-3.896-11.828-10.208-26.137-14.613-28.356c-8.187-4.123-21.831-6.597-32.356-6.597c-10.525,0-24.17,2.473-32.356,6.597
				c-4.404,2.218-10.717,16.528-14.612,28.356L30.34,64.611c2.028-3.466,4.215-6.523,4.215-6.523l-1.169,55.941
				c6.893,4.572,17.902,6.938,29.822,6.938c11.92,0,22.929-2.366,29.822-6.938l-1.17-55.941c0,0,2.187,3.057,4.216,6.523
				L110.177,53.18z"/>
		</g>
	</g>
</g>
<g>
	<path d="M41.757,137.203c0.691,0.354,1.752,0.707,2.847,0.707c1.178,0,1.802-0.488,1.802-1.23c0-0.707-0.539-1.111-1.904-1.6
		c-1.886-0.657-3.115-1.701-3.115-3.352c0-1.937,1.616-3.419,4.295-3.419c1.28,0,2.223,0.27,2.896,0.573l-0.572,2.072
		c-0.455-0.219-1.263-0.539-2.375-0.539c-1.112,0-1.65,0.505-1.65,1.095c0,0.725,0.64,1.045,2.105,1.6
		c2.005,0.741,2.947,1.785,2.947,3.386c0,1.903-1.465,3.52-4.581,3.52c-1.297,0-2.577-0.337-3.217-0.691L41.757,137.203z"/>
	<path d="M53.345,128.495v4.363h4.229v-4.363h2.561v11.353h-2.561v-4.75h-4.229v4.75h-2.576v-11.353H53.345z"/>
	<path d="M64.951,128.495v11.353h-2.576v-11.353H64.951z"/>
	<path d="M67.176,128.646c0.825-0.135,2.054-0.236,3.419-0.236c1.684,0,2.864,0.252,3.672,0.892
		c0.674,0.539,1.045,1.331,1.045,2.375c0,1.449-1.028,2.443-2.005,2.796v0.051c0.792,0.32,1.23,1.078,1.516,2.123
		c0.354,1.28,0.708,2.762,0.927,3.2h-2.628c-0.185-0.32-0.455-1.246-0.791-2.645c-0.303-1.415-0.791-1.802-1.836-1.819h-0.775v4.464
		h-2.543V128.646z M69.719,133.531h1.01c1.28,0,2.038-0.64,2.038-1.634c0-1.044-0.708-1.566-1.886-1.583
		c-0.623,0-0.978,0.051-1.162,0.084V133.531z"/>
	<path d="M79.506,130.651h-3.049v-2.156h8.724v2.156h-3.099v9.197h-2.577V130.651z"/>
</g>
</svg>
