<?xml version="1.0" encoding="utf-8"?>
<!-- Generator: Adobe Illustrator 17.0.0, SVG Export Plug-In . SVG Version: 6.00 Build 0)  -->
<!DOCTYPE svg PUBLIC "-//W3C//DTD SVG 1.1//EN" "http://www.w3.org/Graphics/SVG/1.1/DTD/svg11.dtd">
<svg version="1.1" id="Layer_1" xmlns="http://www.w3.org/2000/svg" xmlns:xlink="http://www.w3.org/1999/xlink" x="0px" y="0px"
	 width="125px" height="150px" viewBox="0 0 125 150" enable-background="new 0 0 125 150" xml:space="preserve">
<g>
	<rect x="34.112" y="110.564" fill-rule="evenodd" clip-rule="evenodd" fill="#717071" width="58.217" height="6.085"/>
	<path fill-rule="evenodd" clip-rule="evenodd" fill="#9D9E9E" d="M36.361,111.071c0,0,0.113,0.318,0.195,0.798
		c0.085,0.48,0.14,1.12,0.144,1.756c-0.004,0.639-0.058,1.279-0.144,1.759c-0.082,0.481-0.195,0.798-0.195,0.798
		s-0.117-0.318-0.199-0.798c-0.085-0.48-0.14-1.12-0.144-1.759c0.004-0.636,0.058-1.276,0.148-1.756
		C36.244,111.389,36.361,111.071,36.361,111.071"/>
	<path fill-rule="evenodd" clip-rule="evenodd" fill="#9D9E9E" d="M39.173,111.071c0,0,0.113,0.318,0.195,0.798
		c0.086,0.48,0.144,1.12,0.144,1.756c0,0.639-0.058,1.279-0.144,1.759c-0.082,0.481-0.195,0.798-0.195,0.798
		s-0.112-0.318-0.195-0.798c-0.085-0.48-0.144-1.12-0.144-1.759c0-0.636,0.058-1.276,0.144-1.756
		C39.06,111.389,39.173,111.071,39.173,111.071"/>
	<path fill-rule="evenodd" clip-rule="evenodd" fill="#9D9E9E" d="M42.024,111.071c0,0,0.113,0.318,0.195,0.798
		c0.085,0.48,0.144,1.12,0.144,1.756c0,0.639-0.058,1.279-0.144,1.759c-0.082,0.481-0.195,0.798-0.195,0.798
		s-0.113-0.318-0.195-0.798c-0.085-0.48-0.144-1.12-0.144-1.759c0-0.636,0.058-1.276,0.144-1.756
		C41.911,111.389,42.024,111.071,42.024,111.071"/>
	<path fill-rule="evenodd" clip-rule="evenodd" fill="#9D9E9E" d="M44.837,111.071c0,0,0.117,0.318,0.195,0.798
		c0.089,0.48,0.144,1.12,0.148,1.756c-0.004,0.639-0.058,1.279-0.144,1.759c-0.082,0.481-0.198,0.798-0.198,0.798
		s-0.113-0.318-0.195-0.798c-0.086-0.48-0.14-1.12-0.144-1.759c0.004-0.636,0.058-1.276,0.144-1.756
		C44.724,111.389,44.837,111.071,44.837,111.071"/>
	<path fill-rule="evenodd" clip-rule="evenodd" fill="#9D9E9E" d="M47.727,111.071c0,0,0.113,0.318,0.195,0.798
		c0.085,0.48,0.144,1.12,0.144,1.756c0,0.639-0.054,1.279-0.144,1.759c-0.078,0.481-0.195,0.798-0.195,0.798
		s-0.113-0.318-0.195-0.798c-0.086-0.48-0.144-1.12-0.144-1.759c0-0.636,0.058-1.276,0.144-1.756
		C47.614,111.389,47.727,111.071,47.727,111.071"/>
	<path fill-rule="evenodd" clip-rule="evenodd" fill="#9D9E9E" d="M50.543,111.071c0,0,0.113,0.318,0.19,0.798
		c0.089,0.48,0.144,1.12,0.148,1.756c-0.004,0.639-0.058,1.279-0.144,1.759c-0.082,0.481-0.195,0.798-0.195,0.798
		s-0.117-0.318-0.199-0.798c-0.085-0.48-0.14-1.12-0.144-1.759c0.004-0.636,0.058-1.276,0.148-1.756
		C50.426,111.389,50.543,111.071,50.543,111.071"/>
	<path fill-rule="evenodd" clip-rule="evenodd" fill="#9D9E9E" d="M53.395,111.071c0,0,0.112,0.318,0.195,0.798
		c0.085,0.48,0.14,1.12,0.144,1.756c-0.004,0.639-0.058,1.279-0.144,1.759c-0.082,0.481-0.195,0.798-0.195,0.798
		s-0.117-0.318-0.199-0.798c-0.085-0.48-0.14-1.12-0.144-1.759c0.004-0.636,0.058-1.276,0.148-1.756
		C53.282,111.389,53.395,111.071,53.395,111.071"/>
	<path fill-rule="evenodd" clip-rule="evenodd" fill="#9D9E9E" d="M56.207,111.071c0,0,0.113,0.318,0.195,0.798
		c0.086,0.48,0.144,1.12,0.144,1.756c0,0.639-0.058,1.279-0.144,1.759c-0.082,0.481-0.195,0.798-0.195,0.798
		s-0.113-0.318-0.195-0.798c-0.085-0.48-0.144-1.12-0.144-1.759c0-0.636,0.058-1.276,0.144-1.756
		C56.094,111.389,56.207,111.071,56.207,111.071"/>
	<path fill-rule="evenodd" clip-rule="evenodd" fill="#9D9E9E" d="M59.133,111.071c0,0,0.117,0.318,0.195,0.798
		c0.085,0.48,0.144,1.12,0.148,1.756c-0.004,0.639-0.058,1.279-0.144,1.759c-0.082,0.481-0.198,0.798-0.198,0.798
		s-0.113-0.318-0.195-0.798c-0.086-0.48-0.14-1.12-0.144-1.759c0.004-0.636,0.058-1.276,0.144-1.756
		C59.02,111.389,59.133,111.071,59.133,111.071"/>
	<path fill-rule="evenodd" clip-rule="evenodd" fill="#9D9E9E" d="M61.949,111.071c0,0,0.113,0.318,0.195,0.798
		c0.085,0.48,0.144,1.12,0.144,1.756c0,0.639-0.058,1.279-0.144,1.759c-0.082,0.481-0.195,0.798-0.195,0.798
		s-0.117-0.318-0.195-0.798c-0.089-0.48-0.144-1.12-0.144-1.759c0-0.636,0.058-1.276,0.144-1.756
		C61.836,111.389,61.949,111.071,61.949,111.071"/>
	<path fill-rule="evenodd" clip-rule="evenodd" fill="#9D9E9E" d="M64.8,111.071c0,0,0.113,0.318,0.195,0.798
		c0.085,0.48,0.144,1.12,0.144,1.756c0,0.639-0.058,1.279-0.144,1.759c-0.082,0.481-0.195,0.798-0.195,0.798
		s-0.113-0.318-0.195-0.798c-0.086-0.48-0.144-1.12-0.144-1.759c0-0.636,0.058-1.276,0.144-1.756
		C64.687,111.389,64.8,111.071,64.8,111.071"/>
	<path fill-rule="evenodd" clip-rule="evenodd" fill="#9D9E9E" d="M67.613,111.071c0,0,0.117,0.318,0.195,0.798
		c0.086,0.48,0.144,1.12,0.148,1.756c-0.004,0.639-0.058,1.279-0.148,1.759c-0.078,0.481-0.195,0.798-0.195,0.798
		s-0.113-0.318-0.195-0.798c-0.085-0.48-0.144-1.12-0.144-1.759c0.004-0.636,0.058-1.276,0.144-1.756
		C67.5,111.389,67.613,111.071,67.613,111.071"/>
	<path fill-rule="evenodd" clip-rule="evenodd" fill="#9D9E9E" d="M70.503,111.071c0,0,0.113,0.318,0.195,0.798
		c0.086,0.48,0.144,1.12,0.144,1.756c0,0.639-0.054,1.279-0.144,1.759c-0.082,0.481-0.195,0.798-0.195,0.798
		s-0.113-0.318-0.195-0.798c-0.085-0.48-0.144-1.12-0.144-1.759c0-0.636,0.058-1.276,0.144-1.756
		C70.39,111.389,70.503,111.071,70.503,111.071"/>
	<path fill-rule="evenodd" clip-rule="evenodd" fill="#9D9E9E" d="M73.315,111.071c0,0,0.117,0.318,0.195,0.798
		c0.089,0.48,0.144,1.12,0.148,1.756c-0.004,0.639-0.058,1.279-0.144,1.759c-0.082,0.481-0.198,0.798-0.198,0.798
		s-0.113-0.318-0.195-0.798c-0.086-0.48-0.14-1.12-0.144-1.759c0.004-0.636,0.058-1.276,0.148-1.756
		C73.202,111.389,73.315,111.071,73.315,111.071"/>
	<path fill-rule="evenodd" clip-rule="evenodd" fill="#9D9E9E" d="M76.167,111.071c0,0,0.117,0.318,0.195,0.798
		c0.089,0.48,0.144,1.12,0.148,1.756c-0.004,0.639-0.058,1.279-0.144,1.759c-0.082,0.481-0.198,0.798-0.198,0.798
		s-0.113-0.318-0.195-0.798c-0.086-0.48-0.14-1.12-0.144-1.759c0.004-0.636,0.058-1.276,0.147-1.756
		C76.054,111.389,76.167,111.071,76.167,111.071"/>
	<path fill-rule="evenodd" clip-rule="evenodd" fill="#9D9E9E" d="M78.983,111.071c0,0,0.113,0.318,0.195,0.798
		c0.085,0.48,0.144,1.12,0.144,1.756c0,0.639-0.058,1.279-0.144,1.759c-0.082,0.481-0.195,0.798-0.195,0.798
		s-0.117-0.318-0.195-0.798c-0.086-0.48-0.144-1.12-0.144-1.759c0-0.636,0.058-1.276,0.144-1.756
		C78.87,111.389,78.983,111.071,78.983,111.071"/>
	<path fill-rule="evenodd" clip-rule="evenodd" fill="#9D9E9E" d="M81.761,111.071c0,0,0.113,0.318,0.195,0.798
		c0.085,0.48,0.14,1.12,0.144,1.756c0,0.639-0.058,1.279-0.144,1.759c-0.082,0.481-0.195,0.798-0.195,0.798
		s-0.117-0.318-0.199-0.798c-0.085-0.48-0.14-1.12-0.144-1.759c0.004-0.636,0.062-1.276,0.148-1.756
		C81.644,111.389,81.761,111.071,81.761,111.071"/>
	<path fill-rule="evenodd" clip-rule="evenodd" fill="#9D9E9E" d="M84.573,111.071c0,0,0.113,0.318,0.195,0.798
		c0.086,0.48,0.144,1.12,0.144,1.756c0,0.639-0.054,1.279-0.144,1.759c-0.078,0.481-0.195,0.798-0.195,0.798
		s-0.113-0.318-0.195-0.798c-0.085-0.48-0.144-1.12-0.144-1.759c0-0.636,0.058-1.276,0.144-1.756
		C84.46,111.389,84.573,111.071,84.573,111.071"/>
	<path fill-rule="evenodd" clip-rule="evenodd" fill="#9D9E9E" d="M87.424,111.071c0,0,0.113,0.318,0.195,0.798
		c0.086,0.48,0.144,1.12,0.144,1.756c0,0.639-0.054,1.279-0.144,1.759c-0.078,0.481-0.195,0.798-0.195,0.798
		s-0.113-0.318-0.195-0.798c-0.085-0.48-0.144-1.12-0.144-1.759c0.004-0.636,0.058-1.276,0.144-1.756
		C87.311,111.389,87.424,111.071,87.424,111.071"/>
	<path fill-rule="evenodd" clip-rule="evenodd" fill="#9D9E9E" d="M90.241,111.071c0,0,0.113,0.318,0.195,0.798
		c0.086,0.48,0.14,1.12,0.144,1.756c-0.004,0.639-0.058,1.279-0.144,1.759c-0.082,0.481-0.195,0.798-0.195,0.798
		s-0.117-0.318-0.195-0.798c-0.089-0.48-0.144-1.12-0.148-1.759c0.004-0.636,0.058-1.276,0.148-1.756
		C90.124,111.389,90.241,111.071,90.241,111.071"/>
	<path fill-rule="evenodd" clip-rule="evenodd" fill="#231914" d="M60.167,113.417c0,0.421-0.404,0.765-0.899,0.765
		c-0.498,0-0.902-0.344-0.902-0.765c0-0.424,0.405-0.766,0.902-0.766C59.763,112.651,60.167,112.993,60.167,113.417"/>
	<path fill-rule="evenodd" clip-rule="evenodd" fill="#231914" d="M67.998,113.417c0,0.421-0.405,0.765-0.898,0.765
		c-0.498,0-0.903-0.344-0.903-0.765c0-0.424,0.405-0.766,0.903-0.766C67.593,112.651,67.998,112.993,67.998,113.417"/>
	<rect x="8.73" y="103.008" fill-rule="evenodd" clip-rule="evenodd" width="13.436" height="5.542"/>
	
		<rect x="8.73" y="103.008" fill="none" stroke="#FFFFFF" stroke-width="0.3436" stroke-miterlimit="10" width="13.436" height="5.542"/>
	<path fill-rule="evenodd" clip-rule="evenodd" d="M6.808,78.126c-0.747,18.021,1.875,24.882,1.875,24.882h13.483
		c0,0,3.186-7.978,2.999-21.533c-0.191-13.556,8.052-28.708,8.052-28.708c0.093-6.539-8.803-22.649-8.803-22.649
		C18.984,36.18,7.559,60.105,6.808,78.126"/>
	<path fill="none" stroke="#FFFFFF" stroke-width="0.3436" stroke-miterlimit="10" d="M6.808,78.126
		c-0.747,18.021,1.875,24.882,1.875,24.882h13.483c0,0,3.186-7.978,2.999-21.533c-0.191-13.556,8.052-28.708,8.052-28.708
		c0.093-6.539-8.803-22.649-8.803-22.649C18.984,36.18,7.559,60.105,6.808,78.126z"/>
	<rect x="104.198" y="103.008" fill-rule="evenodd" clip-rule="evenodd" width="13.436" height="5.542"/>
	
		<rect x="104.198" y="103.008" fill="none" stroke="#FFFFFF" stroke-width="0.3436" stroke-miterlimit="10" width="13.436" height="5.542"/>
	<polygon fill-rule="evenodd" clip-rule="evenodd" points="63.182,118.717 95.582,118.717 95.582,110.664 63.182,110.664 
		30.798,110.664 30.798,118.717 	"/>
	<polygon fill="none" stroke="#FFFFFF" stroke-width="0.3436" stroke-miterlimit="10" points="63.182,118.717 95.582,118.717 
		95.582,110.664 63.182,110.664 30.798,110.664 30.798,118.717 	"/>
	<path fill-rule="evenodd" clip-rule="evenodd" d="M101.95,30.118c0,0-8.897,16.11-8.803,22.649c0,0,1.124,29.347,2.809,38.12
		c1.688,8.772-0.374,19.777-0.374,19.777h-32.4H30.782c0,0-2.062-11.005-0.373-19.777c1.684-8.772,2.808-38.12,2.808-38.12
		c0.093-6.539-8.803-22.649-8.803-22.649c5.431-6.059,18.73-9.889,38.767-9.889C83.223,20.229,96.519,24.059,101.95,30.118"/>
	<path fill="none" stroke="#FFFFFF" stroke-width="0.3436" stroke-miterlimit="10" d="M101.95,30.118c0,0-8.897,16.11-8.803,22.649
		c0,0,1.124,29.347,2.809,38.12c1.688,8.772-0.374,19.777-0.374,19.777h-32.4H30.782c0,0-2.062-11.005-0.373-19.777
		c1.684-8.772,2.808-38.12,2.808-38.12c0.093-6.539-8.803-22.649-8.803-22.649c5.431-6.059,18.73-9.889,38.767-9.889
		C83.223,20.229,96.519,24.059,101.95,30.118z"/>
	<path fill-rule="evenodd" clip-rule="evenodd" d="M119.556,78.126c0.747,18.021-1.875,24.882-1.875,24.882h-13.483
		c0,0-3.186-7.978-2.995-21.533c0.187-13.556-8.056-28.708-8.056-28.708c-0.093-6.539,8.803-22.649,8.803-22.649
		C107.38,36.18,118.805,60.105,119.556,78.126"/>
	<path fill="none" stroke="#FFFFFF" stroke-width="0.3436" stroke-miterlimit="10" d="M119.556,78.126
		c0.747,18.021-1.875,24.882-1.875,24.882h-13.483c0,0-3.186-7.978-2.995-21.533c0.187-13.556-8.056-28.708-8.056-28.708
		c-0.093-6.539,8.803-22.649,8.803-22.649C107.38,36.18,118.805,60.105,119.556,78.126z"/>
	<path fill-rule="evenodd" clip-rule="evenodd" d="M87.432,18.477c-0.56-2.872,2.486-5.622-24.25-5.622
		c-26.736,0-23.69,2.75-24.25,5.622c-0.56,2.868-3.656,4.664,0,4.27c3.653-0.398,18.54,1.352,24.25,6.374
		c5.715-5.022,20.597-6.771,24.25-6.374C91.089,23.141,87.992,21.346,87.432,18.477"/>
	<path fill="none" stroke="#FFFFFF" stroke-width="0.3436" stroke-miterlimit="10" d="M87.432,18.477
		c-0.56-2.872,2.486-5.622-24.25-5.622c-26.736,0-23.69,2.75-24.25,5.622c-0.56,2.868-3.656,4.664,0,4.27
		c3.653-0.398,18.54,1.352,24.25,6.374c5.715-5.022,20.597-6.771,24.25-6.374C91.089,23.141,87.992,21.346,87.432,18.477z"/>
	<path fill-rule="evenodd" clip-rule="evenodd" d="M63.182,14.051L63.182,14.051c-18.777,0-25.938,1.077-16.104,4.307
		c9.83,3.23,16.104,9.448,16.104,9.448s6.275-6.218,16.104-9.448C89.12,15.128,81.959,14.051,63.182,14.051"/>
	<path fill="none" stroke="#FFFFFF" stroke-width="0.3436" stroke-miterlimit="10" d="M63.182,14.051L63.182,14.051
		c-18.777,0-25.938,1.077-16.104,4.307c9.83,3.23,16.104,9.448,16.104,9.448s6.275-6.218,16.104-9.448
		C89.12,15.128,81.959,14.051,63.182,14.051z"/>
	<path fill-rule="evenodd" clip-rule="evenodd" fill="#231914" d="M60.167,25.748c0,0.424-0.404,0.769-0.899,0.769
		c-0.498,0-0.902-0.345-0.902-0.769c0-0.421,0.405-0.766,0.902-0.766C59.763,24.983,60.167,25.328,60.167,25.748"/>
	<rect x="59" y="35.031" fill-rule="evenodd" clip-rule="evenodd" fill="#717071" width="0.533" height="2.044"/>
	<path fill-rule="evenodd" clip-rule="evenodd" fill="#595857" d="M59.907,34.868c0,0.424-0.288,0.769-0.638,0.769
		c-0.354,0-0.642-0.345-0.642-0.769v-8.351c0-0.424,0.288-0.769,0.642-0.769c0.35,0,0.638,0.344,0.638,0.769V34.868z"/>
	<path fill-rule="evenodd" clip-rule="evenodd" fill="#231914" d="M67.998,25.748c0,0.424-0.405,0.769-0.898,0.769
		c-0.498,0-0.903-0.345-0.903-0.769c0-0.421,0.405-0.766,0.903-0.766C67.593,24.983,67.998,25.328,67.998,25.748"/>
	<rect x="66.831" y="35.031" fill-rule="evenodd" clip-rule="evenodd" fill="#717071" width="0.537" height="2.044"/>
	<path fill-rule="evenodd" clip-rule="evenodd" fill="#595857" d="M67.737,34.868c0,0.424-0.288,0.769-0.638,0.769
		c-0.354,0-0.638-0.345-0.638-0.769v-8.351c0-0.424,0.284-0.769,0.638-0.769c0.35,0,0.638,0.344,0.638,0.769V34.868z"/>
	<path fill-rule="evenodd" clip-rule="evenodd" d="M32.595,65.885h61.174c-0.397-7.262-0.622-13.119-0.622-13.119
		c0-0.066,0-0.132,0.004-0.199H33.214c0.004,0.066,0.004,0.132,0.004,0.199C33.218,52.767,32.992,58.624,32.595,65.885"/>
	<path fill="none" stroke="#FFFFFF" stroke-width="0.3436" stroke-miterlimit="10" d="M32.595,65.885h61.174
		c-0.397-7.262-0.622-13.119-0.622-13.119c0-0.066,0-0.132,0.004-0.199H33.214c0.004,0.066,0.004,0.132,0.004,0.199
		C33.218,52.767,32.992,58.624,32.595,65.885z"/>
	<polygon fill-rule="evenodd" clip-rule="evenodd" points="29.745,98.54 48.528,84.751 80.1,84.751 96.609,99.844 96.563,102.339 
		96.317,105.049 95.954,108.259 95.581,110.664 30.782,110.664 30.421,108.335 30.118,105.779 29.915,103.766 29.842,102.27 
		29.745,100.95 	"/>
	<polygon fill="none" stroke="#FFFFFF" stroke-width="0.3436" stroke-miterlimit="10" points="29.745,98.54 48.528,84.751 
		80.1,84.751 96.609,99.844 96.563,102.339 96.317,105.049 95.954,108.259 95.581,110.664 30.782,110.664 30.421,108.335 
		30.118,105.779 29.915,103.766 29.842,102.27 29.745,100.95 	"/>
</g>
<g>
	<path d="M35.995,128.495v4.363h4.228v-4.363h2.561v11.353h-2.561v-4.75h-4.228v4.75h-2.576v-11.353H35.995z"/>
	<path d="M55.417,134.053c0,3.723-2.257,5.98-5.576,5.98c-3.37,0-5.34-2.544-5.34-5.778c0-3.402,2.173-5.946,5.526-5.946
		C53.513,128.309,55.417,130.92,55.417,134.053z M47.214,134.205c0,2.223,1.045,3.79,2.763,3.79c1.735,0,2.728-1.65,2.728-3.858
		c0-2.038-0.976-3.79-2.745-3.79C48.224,130.348,47.214,131.998,47.214,134.205z"/>
	<path d="M67.494,134.053c0,3.723-2.257,5.98-5.576,5.98c-3.37,0-5.34-2.544-5.34-5.778c0-3.402,2.173-5.946,5.526-5.946
		C65.59,128.309,67.494,130.92,67.494,134.053z M59.291,134.205c0,2.223,1.045,3.79,2.763,3.79c1.735,0,2.728-1.65,2.728-3.858
		c0-2.038-0.976-3.79-2.745-3.79C60.301,130.348,59.291,131.998,59.291,134.205z"/>
	<path d="M69.179,128.646c0.943-0.152,2.173-0.236,3.47-0.236c2.156,0,3.554,0.387,4.649,1.213c1.179,0.876,1.92,2.274,1.92,4.279
		c0,2.173-0.791,3.672-1.886,4.599c-1.197,0.994-3.015,1.465-5.239,1.465c-1.331,0-2.274-0.084-2.914-0.168V128.646z
		 M71.756,137.911c0.219,0.05,0.572,0.05,0.892,0.05c2.325,0.018,3.841-1.263,3.841-3.975c0.017-2.358-1.365-3.605-3.572-3.605
		c-0.572,0-0.943,0.051-1.162,0.101V137.911z"/>
	<path d="M83.479,128.495v11.353h-2.576v-11.353H83.479z"/>
	<path d="M92.458,135.047H88.28v2.695h4.666v2.106h-7.242v-11.353h7.006v2.105h-4.43v2.358h4.178V135.047z"/>
</g>
</svg>
