<?xml version="1.0" encoding="utf-8"?>
<!-- Generator: Adobe Illustrator 17.0.0, SVG Export Plug-In . SVG Version: 6.00 Build 0)  -->
<!DOCTYPE svg PUBLIC "-//W3C//DTD SVG 1.1//EN" "http://www.w3.org/Graphics/SVG/1.1/DTD/svg11.dtd">
<svg version="1.1" id="Layer_1" xmlns="http://www.w3.org/2000/svg" xmlns:xlink="http://www.w3.org/1999/xlink" x="0px" y="0px"
	 width="125px" height="150px" viewBox="0 0 125 150" enable-background="new 0 0 125 150" xml:space="preserve">
<g>
	<path fill-rule="evenodd" clip-rule="evenodd" d="M71.888,46.595c0.755,0.463,1.753,1.134,2.197,1.783
		c0.478,0.701,0.565,1.741,0.565,2.564c0,0.604-0.045,1.358-0.319,1.908c-0.258,0.523-0.74,0.88-1.255,1.127
		c-0.626,0.299-1.309,0.417-1.999,0.417c-0.743,0-1.483-0.133-2.143-0.486c-0.558-0.299-1.028-0.724-1.256-1.328
		c-0.231-0.618-0.277-1.388-0.277-2.04V49.38h2.329c-0.011-0.004-0.019-0.012-0.03-0.019c-0.3-0.197-0.6-0.398-0.888-0.611
		c-0.19-0.141-0.387-0.288-0.562-0.448c-0.303-0.281-0.519-0.649-0.675-1.032c-0.197-0.493-0.254-1.058-0.254-1.585
		c0-0.645,0.053-1.468,0.372-2.041c0.277-0.504,0.713-0.853,1.233-1.092c0.592-0.269,1.252-0.364,1.901-0.364
		c0.698,0,1.415,0.099,2.056,0.394c0.515,0.239,0.997,0.588,1.244,1.115c0.258,0.562,0.292,1.411,0.292,2.022v0.876H71.888z
		 M70.887,44.972c-0.034,0.098-0.038,0.258-0.038,0.337c0,0.136,0.007,0.345,0.053,0.5v-0.466
		C70.902,45.268,70.902,45.097,70.887,44.972 M70.918,50.256v0.891c0,0.102,0.003,0.376,0.034,0.512h0.019
		c0.007,0,0.026,0,0.034-0.004c0.003,0,0.003-0.004,0.007-0.008c0.061-0.095,0.068-0.307,0.068-0.417
		c0-0.178-0.019-0.811-0.144-0.952C70.929,50.271,70.925,50.263,70.918,50.256 M78.375,49.778v4.381h-3.721V42.408h3.289
		c0.607,0,1.316,0.026,1.9,0.197c0.421,0.125,0.835,0.322,1.134,0.649c0.269,0.292,0.44,0.645,0.531,1.032
		c0.11,0.493,0.122,1.1,0.122,1.605v0.944c0,0.528-0.038,1.21-0.258,1.696c-0.201,0.447-0.565,0.758-1.009,0.956
		c-0.516,0.231-1.119,0.292-1.676,0.292H78.375z"/>
	<path fill="none" stroke="#FFFFFF" stroke-width="0.3627" stroke-miterlimit="10" d="M71.888,46.595
		c0.755,0.463,1.753,1.134,2.197,1.783c0.478,0.701,0.565,1.741,0.565,2.564c0,0.604-0.045,1.358-0.319,1.908
		c-0.258,0.523-0.74,0.88-1.255,1.127c-0.626,0.299-1.309,0.417-1.999,0.417c-0.743,0-1.483-0.133-2.143-0.486
		c-0.558-0.299-1.028-0.724-1.256-1.328c-0.231-0.618-0.277-1.388-0.277-2.04V49.38h2.329c-0.011-0.004-0.019-0.012-0.03-0.019
		c-0.3-0.197-0.6-0.398-0.888-0.611c-0.19-0.141-0.387-0.288-0.562-0.448c-0.303-0.281-0.519-0.649-0.675-1.032
		c-0.197-0.493-0.254-1.058-0.254-1.585c0-0.645,0.053-1.468,0.372-2.041c0.277-0.504,0.713-0.853,1.233-1.092
		c0.592-0.269,1.252-0.364,1.901-0.364c0.698,0,1.415,0.099,2.056,0.394c0.515,0.239,0.997,0.588,1.244,1.115
		c0.258,0.562,0.292,1.411,0.292,2.022v0.876H71.888z M70.887,44.972c-0.034,0.098-0.038,0.258-0.038,0.337
		c0,0.136,0.007,0.345,0.053,0.5v-0.466C70.902,45.268,70.902,45.097,70.887,44.972z M70.918,50.256v0.891
		c0,0.102,0.003,0.376,0.034,0.512h0.019c0.007,0,0.026,0,0.034-0.004c0.003,0,0.003-0.004,0.007-0.008
		c0.061-0.095,0.068-0.307,0.068-0.417c0-0.178-0.019-0.811-0.144-0.952C70.929,50.271,70.925,50.263,70.918,50.256z M78.375,49.778
		v4.381h-3.721V42.408h3.289c0.607,0,1.316,0.026,1.9,0.197c0.421,0.125,0.835,0.322,1.134,0.649
		c0.269,0.292,0.44,0.645,0.531,1.032c0.11,0.493,0.122,1.1,0.122,1.605v0.944c0,0.528-0.038,1.21-0.258,1.696
		c-0.201,0.447-0.565,0.758-1.009,0.956c-0.516,0.231-1.119,0.292-1.676,0.292H78.375z"/>
	<path fill-rule="evenodd" clip-rule="evenodd" d="M54.068,12.855c0,0,6.54,4.161,15.669,0l6.574,10.078L69.59,37.496l-21.12-3.198
		L54.068,12.855z"/>
	<path fill="none" stroke="#FFFFFF" stroke-width="0.3627" stroke-miterlimit="10" d="M54.068,12.855c0,0,6.54,4.161,15.669,0
		l6.574,10.078L69.59,37.496l-21.12-3.198L54.068,12.855z"/>
	<path fill-rule="evenodd" clip-rule="evenodd" d="M50.389,30.042c0.022,0.015,0.049,0.034,0.072,0.053
		C50.438,30.076,50.411,30.057,50.389,30.042 M50.753,30.308c0.023,0.015,0.042,0.03,0.065,0.049
		C50.795,30.338,50.776,30.323,50.753,30.308 M51.121,30.562c0.03,0.019,0.057,0.038,0.087,0.057
		C51.178,30.6,51.151,30.58,51.121,30.562 M51.508,30.808c0.023,0.016,0.05,0.031,0.076,0.046
		C51.557,30.839,51.531,30.824,51.508,30.808 M51.872,31.028c0.03,0.015,0.061,0.031,0.087,0.05
		C51.933,31.059,51.902,31.043,51.872,31.028 M52.244,31.237c0.03,0.015,0.061,0.03,0.091,0.045
		C52.305,31.267,52.274,31.252,52.244,31.237 M52.619,31.43l0.091,0.049C52.68,31.465,52.649,31.445,52.619,31.43 M52.995,31.616
		c0.03,0.015,0.06,0.03,0.091,0.041C53.055,31.647,53.025,31.631,52.995,31.616 M53.374,31.79c0.03,0.015,0.057,0.027,0.087,0.038
		C53.431,31.817,53.404,31.806,53.374,31.79 M53.757,31.958c0.034,0.011,0.068,0.026,0.098,0.042
		C53.826,31.984,53.791,31.969,53.757,31.958 M54.542,32.261c0.03,0.011,0.057,0.023,0.087,0.034
		C54.599,32.284,54.572,32.272,54.542,32.261 M56.374,32.826c0.026,0.004,0.053,0.012,0.083,0.019
		C56.428,32.838,56.401,32.83,56.374,32.826 M60.357,33.46c-0.065-0.065-0.125-0.13-0.19-0.194
		c-6.551-6.733-6.831-14.346-6.475-18.086c0,0,7.428,4.108,16.436,0.156c0.334,3.79-0.03,11.289-6.49,17.93
		c-0.049,0.049-0.091,0.095-0.141,0.144c-1.168,0.106-1.908,0.087-1.908,0.087S61.127,33.509,60.357,33.46 M63.521,33.407
		c0.083-0.008,0.167-0.015,0.254-0.023C63.688,33.391,63.604,33.399,63.521,33.407 M63.854,33.376
		c0.057-0.008,0.114-0.015,0.175-0.019C63.968,33.361,63.912,33.368,63.854,33.376 M64.169,33.338
		c0.042-0.004,0.087-0.008,0.129-0.015C64.256,33.33,64.211,33.334,64.169,33.338 M64.469,33.3c0.049-0.004,0.095-0.011,0.144-0.019
		C64.564,33.289,64.518,33.296,64.469,33.3 M64.613,33.281c0.061-0.007,0.126-0.019,0.19-0.026c0.038-0.004,0.072-0.011,0.11-0.015
		l-0.11,0.015 M66.923,32.845l0.076-0.019C66.976,32.834,66.95,32.838,66.923,32.845 M70.019,31.836
		c0.026-0.011,0.049-0.023,0.076-0.034C70.068,31.813,70.045,31.825,70.019,31.836 M70.815,31.476
		c0.023-0.011,0.046-0.023,0.069-0.034C70.86,31.453,70.838,31.465,70.815,31.476 M71.604,31.07
		c0.023-0.015,0.045-0.026,0.068-0.038C71.65,31.043,71.627,31.055,71.604,31.07"/>
	<path fill="none" stroke="#FFFFFF" stroke-width="0.3627" stroke-miterlimit="10" d="M50.389,30.042
		c0.022,0.015,0.049,0.034,0.072,0.053C50.438,30.076,50.411,30.057,50.389,30.042z M50.753,30.308
		c0.023,0.015,0.042,0.03,0.065,0.049C50.795,30.338,50.776,30.323,50.753,30.308z M51.121,30.562
		c0.03,0.019,0.057,0.038,0.087,0.057C51.178,30.6,51.151,30.58,51.121,30.562z M51.508,30.808c0.023,0.016,0.05,0.031,0.076,0.046
		C51.557,30.839,51.531,30.824,51.508,30.808z M51.872,31.028c0.03,0.015,0.061,0.031,0.087,0.05
		C51.933,31.059,51.902,31.043,51.872,31.028z M52.244,31.237c0.03,0.015,0.061,0.03,0.091,0.045
		C52.305,31.267,52.274,31.252,52.244,31.237z M52.619,31.43l0.091,0.049C52.68,31.465,52.649,31.445,52.619,31.43z M52.995,31.616
		c0.03,0.015,0.06,0.03,0.091,0.041C53.055,31.647,53.025,31.631,52.995,31.616z M53.374,31.79c0.03,0.015,0.057,0.027,0.087,0.038
		C53.431,31.817,53.404,31.806,53.374,31.79z M53.757,31.958c0.034,0.011,0.068,0.026,0.098,0.042
		C53.826,31.984,53.791,31.969,53.757,31.958z M54.542,32.261c0.03,0.011,0.057,0.023,0.087,0.034
		C54.599,32.284,54.572,32.272,54.542,32.261z M56.374,32.826c0.026,0.004,0.053,0.012,0.083,0.019
		C56.428,32.838,56.401,32.83,56.374,32.826z M60.357,33.46c-0.065-0.065-0.125-0.13-0.19-0.194
		c-6.551-6.733-6.831-14.346-6.475-18.086c0,0,7.428,4.108,16.436,0.156c0.334,3.79-0.03,11.289-6.49,17.93
		c-0.049,0.049-0.091,0.095-0.141,0.144c-1.168,0.106-1.908,0.087-1.908,0.087S61.127,33.509,60.357,33.46z M63.521,33.407
		c0.083-0.008,0.167-0.015,0.254-0.023C63.688,33.391,63.604,33.399,63.521,33.407z M63.854,33.376
		c0.057-0.008,0.114-0.015,0.175-0.019C63.968,33.361,63.912,33.368,63.854,33.376z M64.169,33.338
		c0.042-0.004,0.087-0.008,0.129-0.015C64.256,33.33,64.211,33.334,64.169,33.338z M64.469,33.3
		c0.049-0.004,0.095-0.011,0.144-0.019C64.564,33.289,64.518,33.296,64.469,33.3z M64.613,33.281
		c0.061-0.007,0.126-0.019,0.19-0.026c0.038-0.004,0.072-0.011,0.11-0.015l-0.11,0.015 M66.923,32.845l0.076-0.019
		C66.976,32.834,66.95,32.838,66.923,32.845z M70.019,31.836c0.026-0.011,0.049-0.023,0.076-0.034
		C70.068,31.813,70.045,31.825,70.019,31.836z M70.815,31.476c0.023-0.011,0.046-0.023,0.069-0.034
		C70.86,31.453,70.838,31.465,70.815,31.476z M71.604,31.07c0.023-0.015,0.045-0.026,0.068-0.038
		C71.65,31.043,71.627,31.055,71.604,31.07z"/>
	<path fill-rule="evenodd" clip-rule="evenodd" d="M45.268,18.617l8.8-5.762c0,0-3,11.057,6.1,20.411
		c0.065,0.064,0.125,0.129,0.189,0.194C56.556,33.209,45.268,31.392,45.268,18.617"/>
	<path fill="none" stroke="#FFFFFF" stroke-width="0.3627" stroke-miterlimit="10" d="M45.268,18.617l8.8-5.762
		c0,0-3,11.057,6.1,20.411c0.065,0.064,0.125,0.129,0.189,0.194C56.556,33.209,45.268,31.392,45.268,18.617z"/>
	<path fill-rule="evenodd" clip-rule="evenodd" d="M48.162,16.72l0.489-0.318c0.212,7.305,4.222,10.875,8.208,12.616
		c0.136,0.224,0.277,0.444,0.425,0.668C53.021,28.1,48.397,24.568,48.162,16.72"/>
	<path fill="none" stroke="#FFFFFF" stroke-width="0.3627" stroke-miterlimit="10" d="M48.162,16.72l0.489-0.318
		c0.212,7.305,4.222,10.875,8.208,12.616c0.136,0.224,0.277,0.444,0.425,0.668C53.021,28.1,48.397,24.568,48.162,16.72z"/>
	<path fill-rule="evenodd" clip-rule="evenodd" d="M78.538,18.617l-8.8-5.762c0,0,3,11.057-6.1,20.411
		c-0.049,0.049-0.091,0.095-0.14,0.144C67.928,33.005,78.538,30.77,78.538,18.617"/>
	<path fill="none" stroke="#FFFFFF" stroke-width="0.3627" stroke-miterlimit="10" d="M78.538,18.617l-8.8-5.762
		c0,0,3,11.057-6.1,20.411c-0.049,0.049-0.091,0.095-0.14,0.144C67.928,33.005,78.538,30.77,78.538,18.617z"/>
	<path fill-rule="evenodd" clip-rule="evenodd" d="M23.666,30.778c0,0-12.495,19.079-14.926,34.537c0,0-0.11,4.305-0.664,6.183
		c-0.55,1.878-3.531,25.949-2.538,37.874c0,0-0.44,4.196,3.312,7.727v7.841h10.601l-0.064-7.56c0,0,3.156-3.592,3.156-7.127
		c0-3.531,0.44-29.371,0.994-30.694c0.55-1.324,2.098-5.079,2.427-7.617c0.281-2.143,2.834-9.619,4.556-11.979
		C30.061,32.86,23.666,30.778,23.666,30.778"/>
	<path fill="none" stroke="#FFFFFF" stroke-width="0.3627" stroke-miterlimit="10" d="M23.666,30.778
		c0,0-12.495,19.079-14.926,34.537c0,0-0.11,4.305-0.664,6.183c-0.55,1.878-3.531,25.949-2.538,37.874c0,0-0.44,4.196,3.312,7.727
		v7.841h10.601l-0.064-7.56c0,0,3.156-3.592,3.156-7.127c0-3.531,0.44-29.371,0.994-30.694c0.55-1.324,2.098-5.079,2.427-7.617
		c0.281-2.143,2.834-9.619,4.556-11.979C30.061,32.86,23.666,30.778,23.666,30.778z"/>
	<rect x="8.85" y="117.099" fill-rule="evenodd" clip-rule="evenodd" width="10.601" height="7.841"/>
	
		<rect x="8.85" y="117.099" fill="none" stroke="#FFFFFF" stroke-width="0.3627" stroke-miterlimit="10" width="10.601" height="7.841"/>
	<rect x="8.85" y="118.34" fill-rule="evenodd" clip-rule="evenodd" width="10.601" height="1.722"/>
	
		<rect x="8.85" y="118.34" fill="none" stroke="#FFFFFF" stroke-width="0.3627" stroke-miterlimit="10" width="10.601" height="1.722"/>
	<rect x="8.85" y="121.7" fill-rule="evenodd" clip-rule="evenodd" width="10.601" height="1.681"/>
	
		<rect x="8.85" y="121.7" fill="none" stroke="#FFFFFF" stroke-width="0.3627" stroke-miterlimit="10" width="10.601" height="1.681"/>
	<path fill-rule="evenodd" clip-rule="evenodd" d="M100.246,30.926c0,0,13.803,21.09,16.231,36.551c0,0,0.11,4.305,0.664,6.183
		c0.55,1.873,3.531,25.945,2.538,37.871c0,0,0.443,4.195-3.312,7.731v7.837h-10.601l0.064-7.556c0,0-3.156-3.592-3.156-7.127
		c0-3.532-0.44-29.371-0.99-30.695c-0.554-1.327-2.102-5.079-2.431-7.62c-0.33-2.542-3.866-12.586-5.409-12.7
		c-0.326-0.023-0.744-0.08-1.203-0.156c0.258-26.472,6.039-30.076,6.79-30.432L100.246,30.926z"/>
	<path fill="none" stroke="#FFFFFF" stroke-width="0.3627" stroke-miterlimit="10" d="M100.246,30.926
		c0,0,13.803,21.09,16.231,36.551c0,0,0.11,4.305,0.664,6.183c0.55,1.873,3.531,25.945,2.538,37.871c0,0,0.443,4.195-3.312,7.731
		v7.837h-10.601l0.064-7.556c0,0-3.156-3.592-3.156-7.127c0-3.532-0.44-29.371-0.99-30.695c-0.554-1.327-2.102-5.079-2.431-7.62
		c-0.33-2.542-3.866-12.586-5.409-12.7c-0.326-0.023-0.744-0.08-1.203-0.156c0.258-26.472,6.039-30.076,6.79-30.432L100.246,30.926z
		"/>
	<rect x="105.765" y="119.261" fill-rule="evenodd" clip-rule="evenodd" width="10.601" height="7.837"/>
	
		<rect x="105.765" y="119.261" fill="none" stroke="#FFFFFF" stroke-width="0.3627" stroke-miterlimit="10" width="10.601" height="7.837"/>
	<rect x="105.765" y="120.501" fill-rule="evenodd" clip-rule="evenodd" width="10.601" height="1.718"/>
	
		<rect x="105.765" y="120.501" fill="none" stroke="#FFFFFF" stroke-width="0.3627" stroke-miterlimit="10" width="10.601" height="1.718"/>
	<rect x="105.765" y="123.862" fill-rule="evenodd" clip-rule="evenodd" width="10.601" height="1.676"/>
	
		<rect x="105.765" y="123.862" fill="none" stroke="#FFFFFF" stroke-width="0.3627" stroke-miterlimit="10" width="10.601" height="1.676"/>
	<path fill-rule="evenodd" clip-rule="evenodd" d="M61.59,116.541h27.679c0-6.403,2.242-13.28,2.883-15.04
		c0.637-1.764,0.478-8.322,0.478-38.402c0-30.083,6.881-32.321,6.881-32.321c-0.319-0.641-6.722-5.443-10.879-6.881
		c-4.161-1.442-10.094-5.28-10.094-5.28c0,15.358-16.948,14.88-16.948,14.88s-16.322,0.478-16.322-14.88c0,0-6.559,3.839-10.72,5.28
		c-4.161,1.437-10.56,6.24-10.883,6.881c0,0,6.881,2.238,6.881,32.321c0,30.08-0.159,36.638,0.482,38.402
		c0.637,1.76,2.879,8.637,2.879,15.04H61.59z"/>
	<path fill="none" stroke="#FFFFFF" stroke-width="0.3627" stroke-miterlimit="10" d="M61.59,116.541h27.679
		c0-6.403,2.242-13.28,2.883-15.04c0.637-1.764,0.478-8.322,0.478-38.402c0-30.083,6.881-32.321,6.881-32.321
		c-0.319-0.641-6.722-5.443-10.879-6.881c-4.161-1.442-10.094-5.28-10.094-5.28c0,15.358-16.948,14.88-16.948,14.88
		s-16.322,0.478-16.322-14.88c0,0-6.559,3.839-10.72,5.28c-4.161,1.437-10.56,6.24-10.883,6.881c0,0,6.881,2.238,6.881,32.321
		c0,30.08-0.159,36.638,0.482,38.402c0.637,1.76,2.879,8.637,2.879,15.04H61.59z"/>
	<rect x="58.559" y="33.262" fill-rule="evenodd" clip-rule="evenodd" width="5.91" height="83.279"/>
	
		<rect x="58.559" y="33.262" fill="none" stroke="#FFFFFF" stroke-width="0.3627" stroke-miterlimit="10" width="5.91" height="83.279"/>
	<rect x="33.908" y="116.541" fill-rule="evenodd" clip-rule="evenodd" width="55.403" height="5.758"/>
	
		<rect x="33.908" y="116.541" fill="none" stroke="#FFFFFF" stroke-width="0.3627" stroke-miterlimit="10" width="55.403" height="5.758"/>
	<rect x="33.908" y="117.862" fill-rule="evenodd" clip-rule="evenodd" width="55.403" height="0.959"/>
	
		<rect x="33.908" y="117.862" fill="none" stroke="#FFFFFF" stroke-width="0.3627" stroke-miterlimit="10" width="55.403" height="0.959"/>
	<rect x="33.908" y="120.263" fill-rule="evenodd" clip-rule="evenodd" width="55.403" height="0.959"/>
	
		<rect x="33.908" y="120.263" fill="none" stroke="#FFFFFF" stroke-width="0.3627" stroke-miterlimit="10" width="55.403" height="0.959"/>
	
		<rect x="41.014" y="84.138" transform="matrix(0.913 0.408 -0.408 0.913 41.9356 -9.1648)" fill-rule="evenodd" clip-rule="evenodd" width="2.883" height="19.202"/>
	
		<rect x="41.014" y="84.138" transform="matrix(0.913 0.408 -0.408 0.913 41.9356 -9.1648)" fill="none" stroke="#FFFFFF" stroke-width="0.3627" stroke-miterlimit="10" width="2.883" height="19.202"/>
	
		<rect x="79.279" y="84.138" transform="matrix(-0.913 0.4079 -0.4079 -0.913 192.658 146.3967)" fill-rule="evenodd" clip-rule="evenodd" width="2.883" height="19.202"/>
	
		<rect x="79.279" y="84.138" transform="matrix(-0.913 0.4079 -0.4079 -0.913 192.658 146.3967)" fill="none" stroke="#FFFFFF" stroke-width="0.3627" stroke-miterlimit="10" width="2.883" height="19.202"/>
	<path fill-rule="evenodd" clip-rule="evenodd" d="M63.027,40.215c0,0.797-0.645,1.441-1.437,1.441
		c-0.797,0-1.442-0.645-1.442-1.441c0-0.793,0.645-1.438,1.442-1.438C62.383,38.778,63.027,39.422,63.027,40.215"/>
	<path fill="none" stroke="#FFFFFF" stroke-width="0.3627" stroke-miterlimit="10" d="M63.027,40.215
		c0,0.797-0.645,1.441-1.437,1.441c-0.797,0-1.442-0.645-1.442-1.441c0-0.793,0.645-1.438,1.442-1.438
		C62.383,38.778,63.027,39.422,63.027,40.215z"/>
	<path fill-rule="evenodd" clip-rule="evenodd" d="M63.027,53.499c0,0.792-0.645,1.437-1.437,1.437
		c-0.797,0-1.442-0.645-1.442-1.437c0-0.797,0.645-1.442,1.442-1.442C62.383,52.057,63.027,52.702,63.027,53.499"/>
	<path fill="none" stroke="#FFFFFF" stroke-width="0.3627" stroke-miterlimit="10" d="M63.027,53.499
		c0,0.792-0.645,1.437-1.437,1.437c-0.797,0-1.442-0.645-1.442-1.437c0-0.797,0.645-1.442,1.442-1.442
		C62.383,52.057,63.027,52.702,63.027,53.499z"/>
	<path fill-rule="evenodd" clip-rule="evenodd" d="M63.05,66.138c0,0.797-0.645,1.441-1.442,1.441c-0.796,0-1.441-0.645-1.441-1.441
		c0-0.796,0.645-1.441,1.441-1.441C62.405,64.696,63.05,65.341,63.05,66.138"/>
	<circle fill="none" stroke="#FFFFFF" stroke-width="0.3627" stroke-miterlimit="10" cx="61.609" cy="66.138" r="1.442"/>
	<path fill-rule="evenodd" clip-rule="evenodd" d="M63.05,79.418c0,0.796-0.645,1.441-1.442,1.441c-0.796,0-1.441-0.645-1.441-1.441
		c0-0.793,0.645-1.438,1.441-1.438C62.405,77.98,63.05,78.625,63.05,79.418"/>
	<path fill="none" stroke="#FFFFFF" stroke-width="0.3627" stroke-miterlimit="10" d="M63.05,79.418
		c0,0.796-0.645,1.441-1.442,1.441c-0.796,0-1.441-0.645-1.441-1.441c0-0.793,0.645-1.438,1.441-1.438
		C62.405,77.98,63.05,78.625,63.05,79.418z"/>
	<path fill-rule="evenodd" clip-rule="evenodd" d="M62.956,91.897c0,0.796-0.645,1.441-1.442,1.441
		c-0.796,0-1.441-0.645-1.441-1.441c0-0.793,0.645-1.438,1.441-1.438C62.311,90.46,62.956,91.105,62.956,91.897"/>
	<path fill="none" stroke="#FFFFFF" stroke-width="0.3627" stroke-miterlimit="10" d="M62.956,91.897
		c0,0.796-0.645,1.441-1.442,1.441c-0.796,0-1.441-0.645-1.441-1.441c0-0.793,0.645-1.438,1.441-1.438
		C62.311,90.46,62.956,91.105,62.956,91.897z"/>
	<path fill-rule="evenodd" clip-rule="evenodd" d="M62.956,105.181c0,0.793-0.645,1.438-1.442,1.438
		c-0.796,0-1.441-0.645-1.441-1.438c0-0.797,0.645-1.442,1.441-1.442C62.311,103.739,62.956,104.384,62.956,105.181"/>
	<path fill="none" stroke="#FFFFFF" stroke-width="0.3627" stroke-miterlimit="10" d="M62.956,105.181
		c0,0.793-0.645,1.438-1.442,1.438c-0.796,0-1.441-0.645-1.441-1.438c0-0.797,0.645-1.442,1.441-1.442
		C62.311,103.739,62.956,104.384,62.956,105.181z"/>
	<path fill-rule="evenodd" clip-rule="evenodd" d="M60.111,17.028l-0.05,1.798h4.654l-0.045-1.908
		C64.67,16.917,61.753,17.111,60.111,17.028"/>
	<path fill="none" stroke="#FFFFFF" stroke-width="0.3627" stroke-miterlimit="10" d="M60.111,17.028l-0.05,1.798h4.654
		l-0.045-1.908C64.67,16.917,61.753,17.111,60.111,17.028z"/>
	<path fill-rule="evenodd" clip-rule="evenodd" d="M75.701,16.72l-0.485-0.318c-0.213,7.305-4.222,10.875-8.212,12.616
		c-0.137,0.224-0.277,0.444-0.421,0.668C70.845,28.1,75.465,24.568,75.701,16.72"/>
	<path fill="none" stroke="#FFFFFF" stroke-width="0.3627" stroke-miterlimit="10" d="M75.701,16.72l-0.485-0.318
		c-0.213,7.305-4.222,10.875-8.212,12.616c-0.137,0.224-0.277,0.444-0.421,0.668C70.845,28.1,75.465,24.568,75.701,16.72z"/>
</g>
<g>
	<path d="M37.78,128.495h2.561v7.176c0,3.234-1.549,4.363-4.043,4.363c-0.59,0-1.364-0.101-1.869-0.27l0.287-2.072
		c0.353,0.118,0.808,0.202,1.314,0.202c1.078,0,1.752-0.489,1.752-2.257V128.495z"/>
	<path d="M45.124,136.934l-0.808,2.914h-2.662l3.47-11.353h3.37l3.52,11.353H49.25l-0.876-2.914H45.124z M48.004,135.013
		l-0.708-2.408c-0.202-0.674-0.404-1.516-0.572-2.19h-0.033c-0.168,0.674-0.337,1.533-0.522,2.19l-0.674,2.408H48.004z"/>
	<path d="M61.631,139.528c-0.471,0.236-1.533,0.489-2.914,0.489c-3.924,0-5.946-2.443-5.946-5.677c0-3.874,2.762-6.03,6.198-6.03
		c1.331,0,2.342,0.27,2.796,0.505l-0.521,2.038c-0.523-0.219-1.247-0.421-2.156-0.421c-2.039,0-3.622,1.23-3.622,3.756
		c0,2.274,1.347,3.706,3.639,3.706c0.775,0,1.634-0.169,2.139-0.371L61.631,139.528z"/>
	<path d="M63.316,128.495h2.543v5.02h0.051c0.252-0.438,0.522-0.842,0.775-1.246l2.577-3.773h3.15l-3.756,4.834l3.959,6.519h-2.998
		l-2.779-4.902l-0.978,1.196v3.705h-2.543V128.495z"/>
	<path d="M80.413,135.047h-4.178v2.695h4.666v2.106h-7.242v-11.353h7.006v2.105h-4.43v2.358h4.178V135.047z"/>
	<path d="M85.113,130.651h-3.049v-2.156h8.724v2.156H87.69v9.197h-2.577V130.651z"/>
</g>
</svg>
