<?xml version="1.0" encoding="utf-8"?>
<!-- Generator: Adobe Illustrator 17.0.0, SVG Export Plug-In . SVG Version: 6.00 Build 0)  -->
<!DOCTYPE svg PUBLIC "-//W3C//DTD SVG 1.1//EN" "http://www.w3.org/Graphics/SVG/1.1/DTD/svg11.dtd">
<svg version="1.1" id="Layer_1" xmlns="http://www.w3.org/2000/svg" xmlns:xlink="http://www.w3.org/1999/xlink" x="0px" y="0px"
	 width="125px" height="150px" viewBox="0 0 125 150" enable-background="new 0 0 125 150" xml:space="preserve">
<g>
	<path fill-rule="evenodd" clip-rule="evenodd" d="M87.792,99.337c-0.365-2.371-1.095-20.875-1.156-26.779
		c-0.062-5.904-1.399-40.227-2.254-47.348c-0.85-7.121-2.373-8.338-2.373-8.338c0.794-2.496-0.73-4.017-0.73-4.017H61.563H41.843
		c0,0-1.521,1.521-0.73,4.017c0,0-1.524,1.218-2.374,8.338c-0.852,7.121-2.193,41.444-2.254,47.348
		c-0.059,5.903-0.791,24.408-1.156,26.779c-0.365,2.373-1.337,10.955-0.849,13.635c0.485,2.677,0.12,7.241,2.312,8.216l0.059,2.432
		c0,0,5.906,1.401,10.469,0v-2.432c0,0,2.373-0.549,2.558-3.106c0.181-2.555,1.58-9.372,2.494-12.111
		c0.913-2.739,2.435-16.248,3.349-20.388c0.911-4.137,3.468-22.151,3.711-24.951c0.245-2.8,0.914-12.66,2.129-12.598
		c1.22-0.062,1.889,9.798,2.131,12.598c0.245,2.8,2.8,20.814,3.714,24.951c0.911,4.14,2.435,17.649,3.346,20.388
		c0.914,2.739,2.312,9.556,2.496,12.111c0.184,2.557,2.555,3.106,2.555,3.106v2.432c4.566,1.401,10.469,0,10.469,0l0.062-2.432
		c2.19-0.975,1.825-5.539,2.312-8.216C89.13,110.292,88.157,101.711,87.792,99.337"/>
	<path fill="none" stroke="#FFFFFF" stroke-width="0.2351" stroke-miterlimit="10" d="M87.792,99.337
		c-0.365-2.371-1.095-20.875-1.156-26.779c-0.062-5.904-1.399-40.227-2.254-47.348c-0.85-7.121-2.373-8.338-2.373-8.338
		c0.794-2.496-0.73-4.017-0.73-4.017H61.563H41.843c0,0-1.521,1.521-0.73,4.017c0,0-1.524,1.218-2.374,8.338
		c-0.852,7.121-2.193,41.444-2.254,47.348c-0.059,5.903-0.791,24.408-1.156,26.779c-0.365,2.373-1.337,10.955-0.849,13.635
		c0.485,2.677,0.12,7.241,2.312,8.216l0.059,2.432c0,0,5.906,1.401,10.469,0v-2.432c0,0,2.373-0.549,2.558-3.106
		c0.181-2.555,1.58-9.372,2.494-12.111c0.913-2.739,2.435-16.248,3.349-20.388c0.911-4.137,3.468-22.151,3.711-24.951
		c0.245-2.8,0.914-12.66,2.129-12.598c1.22-0.062,1.889,9.798,2.131,12.598c0.245,2.8,2.8,20.814,3.714,24.951
		c0.911,4.14,2.435,17.649,3.346,20.388c0.914,2.739,2.312,9.556,2.496,12.111c0.184,2.557,2.555,3.106,2.555,3.106v2.432
		c4.566,1.401,10.469,0,10.469,0l0.062-2.432c2.19-0.975,1.825-5.539,2.312-8.216C89.13,110.292,88.157,101.711,87.792,99.337z"/>
	<path fill-rule="evenodd" clip-rule="evenodd" d="M86.157,57.736c-0.035-0.85-0.069-1.713-0.104-2.589H71.68l0.309,2.589H86.157z"
		/>
	<path fill="none" stroke="#FFFFFF" stroke-width="0.2351" stroke-miterlimit="10" d="M86.157,57.736
		c-0.035-0.85-0.069-1.713-0.104-2.589H71.68l0.309,2.589H86.157z"/>
	<path fill-rule="evenodd" clip-rule="evenodd" d="M86.322,62.134c-0.029-0.837-0.062-1.7-0.096-2.587H72.208l0.312,2.587H86.322z"
		/>
	<path fill="none" stroke="#FFFFFF" stroke-width="0.2351" stroke-miterlimit="10" d="M86.322,62.134
		c-0.029-0.837-0.062-1.7-0.096-2.587H72.208l0.312,2.587H86.322z"/>
	<path fill-rule="evenodd" clip-rule="evenodd" d="M86.476,66.532c-0.027-0.81-0.056-1.675-0.088-2.587h-13.65l0.309,2.587H86.476z"
		/>
	<path fill="none" stroke="#FFFFFF" stroke-width="0.2351" stroke-miterlimit="10" d="M86.476,66.532
		c-0.027-0.81-0.056-1.675-0.088-2.587h-13.65l0.309,2.587H86.476z"/>
	<path fill-rule="evenodd" clip-rule="evenodd" d="M86.604,70.933c-0.016-0.73-0.04-1.598-0.072-2.589H73.265l0.312,2.589H86.604z"
		/>
	<path fill="none" stroke="#FFFFFF" stroke-width="0.2351" stroke-miterlimit="10" d="M86.604,70.933
		c-0.016-0.73-0.04-1.598-0.072-2.589H73.265l0.312,2.589H86.604z"/>
	<path fill-rule="evenodd" clip-rule="evenodd" d="M81.279,12.855H61.563H41.843c0,0-1.521,1.521-0.73,4.017h40.895
		C82.802,14.376,81.279,12.855,81.279,12.855"/>
	<path fill="none" stroke="#FFFFFF" stroke-width="0.2351" stroke-miterlimit="10" d="M81.279,12.855H61.563H41.843
		c0,0-1.521,1.521-0.73,4.017h40.895C82.802,14.376,81.279,12.855,81.279,12.855z"/>
	<rect x="61.378" y="16.872" fill-rule="evenodd" clip-rule="evenodd" width="0.365" height="31.161"/>
	
		<rect x="61.378" y="16.872" fill="none" stroke="#FFFFFF" stroke-width="0.2351" stroke-miterlimit="10" width="0.365" height="31.161"/>
	<path fill-rule="evenodd" clip-rule="evenodd" d="M36.792,121.187l0.059,2.432c0,0,5.906,1.401,10.469,0v-2.432
		C41.417,122.069,36.792,121.187,36.792,121.187"/>
	<path fill="none" stroke="#FFFFFF" stroke-width="0.2351" stroke-miterlimit="10" d="M36.792,121.187l0.059,2.432
		c0,0,5.906,1.401,10.469,0v-2.432C41.417,122.069,36.792,121.187,36.792,121.187z"/>
	<path fill-rule="evenodd" clip-rule="evenodd" d="M86.354,121.187l-0.062,2.432c0,0-5.903,1.401-10.467,0v-2.432
		C81.729,122.069,86.354,121.187,86.354,121.187"/>
	<path fill="none" stroke="#FFFFFF" stroke-width="0.2351" stroke-miterlimit="10" d="M86.354,121.187l-0.062,2.432
		c0,0-5.903,1.401-10.467,0v-2.432C81.729,122.069,86.354,121.187,86.354,121.187z"/>
	<path fill-rule="evenodd" clip-rule="evenodd" d="M45.312,13.052c0,0,0.069,0.227,0.117,0.568c0.051,0.338,0.086,0.791,0.088,1.244
		c-0.003,0.453-0.035,0.905-0.088,1.244c-0.048,0.341-0.117,0.567-0.117,0.567s-0.069-0.227-0.117-0.567
		c-0.053-0.339-0.088-0.791-0.088-1.244c0-0.453,0.035-0.906,0.088-1.244C45.242,13.279,45.312,13.052,45.312,13.052"/>
	<path fill="none" stroke="#FFFFFF" stroke-width="0.2351" stroke-miterlimit="10" d="M45.312,13.052c0,0,0.069,0.227,0.117,0.568
		c0.051,0.338,0.086,0.791,0.088,1.244c-0.003,0.453-0.035,0.905-0.088,1.244c-0.048,0.341-0.117,0.567-0.117,0.567
		s-0.069-0.227-0.117-0.567c-0.053-0.339-0.088-0.791-0.088-1.244c0-0.453,0.035-0.906,0.088-1.244
		C45.242,13.279,45.312,13.052,45.312,13.052z"/>
	<path fill-rule="evenodd" clip-rule="evenodd" d="M47.009,13.052c0,0,0.069,0.227,0.117,0.568c0.051,0.338,0.086,0.791,0.088,1.244
		c0,0.453-0.035,0.905-0.088,1.244c-0.048,0.341-0.117,0.567-0.117,0.567s-0.069-0.227-0.117-0.567
		c-0.053-0.339-0.088-0.791-0.088-1.244c0.002-0.453,0.035-0.906,0.088-1.244C46.939,13.279,47.009,13.052,47.009,13.052"/>
	<path fill="none" stroke="#FFFFFF" stroke-width="0.2351" stroke-miterlimit="10" d="M47.009,13.052c0,0,0.069,0.227,0.117,0.568
		c0.051,0.338,0.086,0.791,0.088,1.244c0,0.453-0.035,0.905-0.088,1.244c-0.048,0.341-0.117,0.567-0.117,0.567
		s-0.069-0.227-0.117-0.567c-0.053-0.339-0.088-0.791-0.088-1.244c0.002-0.453,0.035-0.906,0.088-1.244
		C46.939,13.279,47.009,13.052,47.009,13.052z"/>
	<path fill-rule="evenodd" clip-rule="evenodd" d="M48.73,13.052c0,0,0.067,0.227,0.117,0.568c0.051,0.338,0.086,0.791,0.088,1.244
		c-0.003,0.453-0.037,0.905-0.088,1.244c-0.048,0.341-0.117,0.567-0.117,0.567s-0.069-0.227-0.12-0.567
		c-0.05-0.339-0.085-0.791-0.085-1.244c0-0.453,0.035-0.906,0.088-1.244C48.661,13.279,48.73,13.052,48.73,13.052"/>
	<path fill="none" stroke="#FFFFFF" stroke-width="0.2351" stroke-miterlimit="10" d="M48.73,13.052c0,0,0.067,0.227,0.117,0.568
		c0.051,0.338,0.086,0.791,0.088,1.244c-0.003,0.453-0.037,0.905-0.088,1.244c-0.048,0.341-0.117,0.567-0.117,0.567
		s-0.069-0.227-0.12-0.567c-0.05-0.339-0.085-0.791-0.085-1.244c0-0.453,0.035-0.906,0.088-1.244
		C48.661,13.279,48.73,13.052,48.73,13.052z"/>
	<path fill-rule="evenodd" clip-rule="evenodd" d="M50.427,13.052c0,0,0.067,0.227,0.117,0.568c0.051,0.338,0.086,0.791,0.088,1.244
		c-0.003,0.453-0.035,0.905-0.088,1.244c-0.048,0.341-0.117,0.567-0.117,0.567s-0.069-0.227-0.117-0.567
		c-0.053-0.339-0.088-0.791-0.088-1.244c0.002-0.453,0.035-0.906,0.088-1.244C50.357,13.279,50.427,13.052,50.427,13.052"/>
	<path fill="none" stroke="#FFFFFF" stroke-width="0.2351" stroke-miterlimit="10" d="M50.427,13.052c0,0,0.067,0.227,0.117,0.568
		c0.051,0.338,0.086,0.791,0.088,1.244c-0.003,0.453-0.035,0.905-0.088,1.244c-0.048,0.341-0.117,0.567-0.117,0.567
		s-0.069-0.227-0.117-0.567c-0.053-0.339-0.088-0.791-0.088-1.244c0.002-0.453,0.035-0.906,0.088-1.244
		C50.357,13.279,50.427,13.052,50.427,13.052z"/>
	<path fill-rule="evenodd" clip-rule="evenodd" d="M52.169,13.052c0,0,0.069,0.227,0.117,0.568c0.053,0.338,0.086,0.791,0.088,1.244
		c-0.002,0.453-0.035,0.905-0.088,1.244c-0.048,0.341-0.117,0.567-0.117,0.567s-0.069-0.227-0.117-0.567
		c-0.053-0.339-0.086-0.791-0.088-1.244c0.003-0.453,0.035-0.906,0.088-1.244C52.1,13.279,52.169,13.052,52.169,13.052"/>
	<path fill="none" stroke="#FFFFFF" stroke-width="0.2351" stroke-miterlimit="10" d="M52.169,13.052c0,0,0.069,0.227,0.117,0.568
		c0.053,0.338,0.086,0.791,0.088,1.244c-0.002,0.453-0.035,0.905-0.088,1.244c-0.048,0.341-0.117,0.567-0.117,0.567
		s-0.069-0.227-0.117-0.567c-0.053-0.339-0.086-0.791-0.088-1.244c0.003-0.453,0.035-0.906,0.088-1.244
		C52.1,13.279,52.169,13.052,52.169,13.052z"/>
	<path fill-rule="evenodd" clip-rule="evenodd" d="M53.866,13.052c0,0,0.069,0.227,0.117,0.568c0.053,0.338,0.088,0.791,0.088,1.244
		c0,0.453-0.035,0.905-0.088,1.244c-0.048,0.341-0.117,0.567-0.117,0.567s-0.069-0.227-0.117-0.567
		c-0.053-0.339-0.086-0.791-0.088-1.244c0.002-0.453,0.037-0.906,0.088-1.244C53.797,13.279,53.866,13.052,53.866,13.052"/>
	<path fill="none" stroke="#FFFFFF" stroke-width="0.2351" stroke-miterlimit="10" d="M53.866,13.052c0,0,0.069,0.227,0.117,0.568
		c0.053,0.338,0.088,0.791,0.088,1.244c0,0.453-0.035,0.905-0.088,1.244c-0.048,0.341-0.117,0.567-0.117,0.567
		s-0.069-0.227-0.117-0.567c-0.053-0.339-0.086-0.791-0.088-1.244c0.002-0.453,0.037-0.906,0.088-1.244
		C53.797,13.279,53.866,13.052,53.866,13.052z"/>
	<path fill-rule="evenodd" clip-rule="evenodd" d="M55.587,13.052c0,0,0.069,0.227,0.117,0.568c0.051,0.338,0.086,0.791,0.088,1.244
		c-0.002,0.453-0.035,0.905-0.088,1.244c-0.047,0.341-0.117,0.567-0.117,0.567s-0.069-0.227-0.117-0.567
		c-0.053-0.339-0.088-0.791-0.088-1.244c0.003-0.453,0.035-0.906,0.088-1.244C55.518,13.279,55.587,13.052,55.587,13.052"/>
	<path fill="none" stroke="#FFFFFF" stroke-width="0.2351" stroke-miterlimit="10" d="M55.587,13.052c0,0,0.069,0.227,0.117,0.568
		c0.051,0.338,0.086,0.791,0.088,1.244c-0.002,0.453-0.035,0.905-0.088,1.244c-0.047,0.341-0.117,0.567-0.117,0.567
		s-0.069-0.227-0.117-0.567c-0.053-0.339-0.088-0.791-0.088-1.244c0.003-0.453,0.035-0.906,0.088-1.244
		C55.518,13.279,55.587,13.052,55.587,13.052z"/>
	<path fill-rule="evenodd" clip-rule="evenodd" d="M57.284,13.052c0,0,0.069,0.227,0.117,0.568c0.051,0.338,0.086,0.791,0.088,1.244
		c-0.003,0.453-0.035,0.905-0.088,1.244c-0.048,0.341-0.117,0.567-0.117,0.567s-0.069-0.227-0.117-0.567
		c-0.053-0.339-0.088-0.791-0.088-1.244c0.002-0.453,0.037-0.906,0.088-1.244C57.214,13.279,57.284,13.052,57.284,13.052"/>
	<path fill="none" stroke="#FFFFFF" stroke-width="0.2351" stroke-miterlimit="10" d="M57.284,13.052c0,0,0.069,0.227,0.117,0.568
		c0.051,0.338,0.086,0.791,0.088,1.244c-0.003,0.453-0.035,0.905-0.088,1.244c-0.048,0.341-0.117,0.567-0.117,0.567
		s-0.069-0.227-0.117-0.567c-0.053-0.339-0.088-0.791-0.088-1.244c0.002-0.453,0.037-0.906,0.088-1.244
		C57.214,13.279,57.284,13.052,57.284,13.052z"/>
	<path fill-rule="evenodd" clip-rule="evenodd" d="M59.05,13.052c0,0,0.067,0.227,0.117,0.568c0.051,0.338,0.086,0.791,0.088,1.244
		c-0.002,0.453-0.037,0.905-0.088,1.244c-0.048,0.341-0.117,0.567-0.117,0.567s-0.069-0.227-0.12-0.567
		c-0.05-0.339-0.085-0.791-0.085-1.244c0-0.453,0.035-0.906,0.088-1.244C58.981,13.279,59.05,13.052,59.05,13.052"/>
	<path fill="none" stroke="#FFFFFF" stroke-width="0.2351" stroke-miterlimit="10" d="M59.05,13.052c0,0,0.067,0.227,0.117,0.568
		c0.051,0.338,0.086,0.791,0.088,1.244c-0.002,0.453-0.037,0.905-0.088,1.244c-0.048,0.341-0.117,0.567-0.117,0.567
		s-0.069-0.227-0.12-0.567c-0.05-0.339-0.085-0.791-0.085-1.244c0-0.453,0.035-0.906,0.088-1.244
		C58.981,13.279,59.05,13.052,59.05,13.052z"/>
	<path fill-rule="evenodd" clip-rule="evenodd" d="M60.747,13.052c0,0,0.069,0.227,0.117,0.568c0.051,0.338,0.086,0.791,0.088,1.244
		c-0.002,0.453-0.035,0.905-0.088,1.244c-0.048,0.341-0.117,0.567-0.117,0.567s-0.069-0.227-0.117-0.567
		c-0.053-0.339-0.088-0.791-0.088-1.244c0.002-0.453,0.035-0.906,0.088-1.244C60.678,13.279,60.747,13.052,60.747,13.052"/>
	<path fill="none" stroke="#FFFFFF" stroke-width="0.2351" stroke-miterlimit="10" d="M60.747,13.052c0,0,0.069,0.227,0.117,0.568
		c0.051,0.338,0.086,0.791,0.088,1.244c-0.002,0.453-0.035,0.905-0.088,1.244c-0.048,0.341-0.117,0.567-0.117,0.567
		s-0.069-0.227-0.117-0.567c-0.053-0.339-0.088-0.791-0.088-1.244c0.002-0.453,0.035-0.906,0.088-1.244
		C60.678,13.279,60.747,13.052,60.747,13.052z"/>
	<path fill-rule="evenodd" clip-rule="evenodd" d="M62.468,13.052c0,0,0.067,0.227,0.117,0.568c0.051,0.338,0.086,0.791,0.086,1.244
		c0,0.453-0.035,0.905-0.086,1.244c-0.05,0.341-0.117,0.567-0.117,0.567s-0.069-0.227-0.12-0.567
		c-0.05-0.339-0.085-0.791-0.085-1.244c0-0.453,0.035-0.906,0.088-1.244C62.399,13.279,62.468,13.052,62.468,13.052"/>
	<path fill="none" stroke="#FFFFFF" stroke-width="0.2351" stroke-miterlimit="10" d="M62.468,13.052c0,0,0.067,0.227,0.117,0.568
		c0.051,0.338,0.086,0.791,0.086,1.244c0,0.453-0.035,0.905-0.086,1.244c-0.05,0.341-0.117,0.567-0.117,0.567
		s-0.069-0.227-0.12-0.567c-0.05-0.339-0.085-0.791-0.085-1.244c0-0.453,0.035-0.906,0.088-1.244
		C62.399,13.279,62.468,13.052,62.468,13.052z"/>
	<path fill-rule="evenodd" clip-rule="evenodd" d="M64.165,13.052c0,0,0.067,0.227,0.117,0.568c0.051,0.338,0.086,0.791,0.088,1.244
		c-0.002,0.453-0.037,0.905-0.088,1.244c-0.048,0.341-0.117,0.567-0.117,0.567s-0.069-0.227-0.117-0.567
		c-0.053-0.339-0.088-0.791-0.088-1.244c0-0.453,0.035-0.906,0.088-1.244C64.096,13.279,64.165,13.052,64.165,13.052"/>
	<path fill="none" stroke="#FFFFFF" stroke-width="0.2351" stroke-miterlimit="10" d="M64.165,13.052c0,0,0.067,0.227,0.117,0.568
		c0.051,0.338,0.086,0.791,0.088,1.244c-0.002,0.453-0.037,0.905-0.088,1.244c-0.048,0.341-0.117,0.567-0.117,0.567
		s-0.069-0.227-0.117-0.567c-0.053-0.339-0.088-0.791-0.088-1.244c0-0.453,0.035-0.906,0.088-1.244
		C64.096,13.279,64.165,13.052,64.165,13.052z"/>
	<path fill-rule="evenodd" clip-rule="evenodd" d="M65.907,13.052c0,0,0.069,0.227,0.117,0.568c0.051,0.338,0.086,0.791,0.088,1.244
		c-0.003,0.453-0.035,0.905-0.088,1.244c-0.048,0.341-0.117,0.567-0.117,0.567s-0.069-0.227-0.117-0.567
		c-0.053-0.339-0.088-0.791-0.088-1.244c0.002-0.453,0.035-0.906,0.088-1.244C65.838,13.279,65.907,13.052,65.907,13.052"/>
	<path fill="none" stroke="#FFFFFF" stroke-width="0.2351" stroke-miterlimit="10" d="M65.907,13.052c0,0,0.069,0.227,0.117,0.568
		c0.051,0.338,0.086,0.791,0.088,1.244c-0.003,0.453-0.035,0.905-0.088,1.244c-0.048,0.341-0.117,0.567-0.117,0.567
		s-0.069-0.227-0.117-0.567c-0.053-0.339-0.088-0.791-0.088-1.244c0.002-0.453,0.035-0.906,0.088-1.244
		C65.838,13.279,65.907,13.052,65.907,13.052z"/>
	<path fill-rule="evenodd" clip-rule="evenodd" d="M67.604,13.052c0,0,0.069,0.227,0.117,0.568c0.053,0.338,0.086,0.791,0.088,1.244
		c0,0.453-0.035,0.905-0.088,1.244c-0.048,0.341-0.117,0.567-0.117,0.567s-0.069-0.227-0.117-0.567
		c-0.053-0.339-0.086-0.791-0.088-1.244c0.002-0.453,0.037-0.906,0.088-1.244C67.535,13.279,67.604,13.052,67.604,13.052"/>
	<path fill="none" stroke="#FFFFFF" stroke-width="0.2351" stroke-miterlimit="10" d="M67.604,13.052c0,0,0.069,0.227,0.117,0.568
		c0.053,0.338,0.086,0.791,0.088,1.244c0,0.453-0.035,0.905-0.088,1.244c-0.048,0.341-0.117,0.567-0.117,0.567
		s-0.069-0.227-0.117-0.567c-0.053-0.339-0.086-0.791-0.088-1.244c0.002-0.453,0.037-0.906,0.088-1.244
		C67.535,13.279,67.604,13.052,67.604,13.052z"/>
	<path fill-rule="evenodd" clip-rule="evenodd" d="M69.325,13.052c0,0,0.067,0.227,0.117,0.568c0.051,0.338,0.086,0.791,0.088,1.244
		c-0.003,0.453-0.035,0.905-0.088,1.244c-0.048,0.341-0.117,0.567-0.117,0.567s-0.069-0.227-0.12-0.567
		c-0.05-0.339-0.085-0.791-0.085-1.244c0-0.453,0.035-0.906,0.088-1.244C69.256,13.279,69.325,13.052,69.325,13.052"/>
	<path fill="none" stroke="#FFFFFF" stroke-width="0.2351" stroke-miterlimit="10" d="M69.325,13.052c0,0,0.067,0.227,0.117,0.568
		c0.051,0.338,0.086,0.791,0.088,1.244c-0.003,0.453-0.035,0.905-0.088,1.244c-0.048,0.341-0.117,0.567-0.117,0.567
		s-0.069-0.227-0.12-0.567c-0.05-0.339-0.085-0.791-0.085-1.244c0-0.453,0.035-0.906,0.088-1.244
		C69.256,13.279,69.325,13.052,69.325,13.052z"/>
	<path fill-rule="evenodd" clip-rule="evenodd" d="M71.022,13.052c0,0,0.069,0.227,0.117,0.568c0.051,0.338,0.086,0.791,0.088,1.244
		c-0.002,0.453-0.034,0.905-0.088,1.244c-0.048,0.341-0.117,0.567-0.117,0.567s-0.069-0.227-0.117-0.567
		c-0.053-0.339-0.088-0.791-0.088-1.244c0.002-0.453,0.035-0.906,0.088-1.244C70.953,13.279,71.022,13.052,71.022,13.052"/>
	<path fill="none" stroke="#FFFFFF" stroke-width="0.2351" stroke-miterlimit="10" d="M71.022,13.052c0,0,0.069,0.227,0.117,0.568
		c0.051,0.338,0.086,0.791,0.088,1.244c-0.002,0.453-0.034,0.905-0.088,1.244c-0.048,0.341-0.117,0.567-0.117,0.567
		s-0.069-0.227-0.117-0.567c-0.053-0.339-0.088-0.791-0.088-1.244c0.002-0.453,0.035-0.906,0.088-1.244
		C70.953,13.279,71.022,13.052,71.022,13.052z"/>
	<path fill-rule="evenodd" clip-rule="evenodd" d="M72.698,13.052c0,0,0.066,0.227,0.117,0.568c0.051,0.338,0.086,0.791,0.086,1.244
		c0,0.453-0.035,0.905-0.086,1.244c-0.048,0.341-0.12,0.567-0.12,0.567c0.003,0-0.067-0.227-0.117-0.567
		c-0.05-0.339-0.085-0.791-0.085-1.244c0-0.453,0.035-0.906,0.088-1.244C72.629,13.279,72.695,13.052,72.698,13.052"/>
	<path fill="none" stroke="#FFFFFF" stroke-width="0.2351" stroke-miterlimit="10" d="M72.698,13.052c0,0,0.066,0.227,0.117,0.568
		c0.051,0.338,0.086,0.791,0.086,1.244c0,0.453-0.035,0.905-0.086,1.244c-0.048,0.341-0.12,0.567-0.12,0.567
		c0.003,0-0.067-0.227-0.117-0.567c-0.05-0.339-0.085-0.791-0.085-1.244c0-0.453,0.035-0.906,0.088-1.244
		C72.629,13.279,72.695,13.052,72.698,13.052z"/>
	<path fill-rule="evenodd" clip-rule="evenodd" d="M74.395,13.052c0,0,0.069,0.227,0.117,0.568c0.051,0.338,0.086,0.791,0.088,1.244
		c-0.002,0.453-0.035,0.905-0.088,1.244c-0.047,0.341-0.117,0.567-0.117,0.567s-0.069-0.227-0.12-0.567
		c-0.051-0.339-0.086-0.791-0.086-1.244c0-0.453,0.035-0.906,0.088-1.244C74.326,13.279,74.395,13.052,74.395,13.052"/>
	<path fill="none" stroke="#FFFFFF" stroke-width="0.2351" stroke-miterlimit="10" d="M74.395,13.052c0,0,0.069,0.227,0.117,0.568
		c0.051,0.338,0.086,0.791,0.088,1.244c-0.002,0.453-0.035,0.905-0.088,1.244c-0.047,0.341-0.117,0.567-0.117,0.567
		s-0.069-0.227-0.12-0.567c-0.051-0.339-0.086-0.791-0.086-1.244c0-0.453,0.035-0.906,0.088-1.244
		C74.326,13.279,74.395,13.052,74.395,13.052z"/>
	<path fill-rule="evenodd" clip-rule="evenodd" d="M76.113,13.052c0,0,0.069,0.227,0.117,0.568c0.053,0.338,0.088,0.791,0.088,1.244
		c0,0.453-0.035,0.905-0.085,1.244c-0.051,0.341-0.12,0.567-0.12,0.567s-0.069-0.227-0.117-0.567
		c-0.051-0.339-0.086-0.791-0.088-1.244c0.003-0.453,0.037-0.906,0.088-1.244C76.047,13.279,76.113,13.052,76.113,13.052"/>
	<path fill="none" stroke="#FFFFFF" stroke-width="0.2351" stroke-miterlimit="10" d="M76.113,13.052c0,0,0.069,0.227,0.117,0.568
		c0.053,0.338,0.088,0.791,0.088,1.244c0,0.453-0.035,0.905-0.085,1.244c-0.051,0.341-0.12,0.567-0.12,0.567
		s-0.069-0.227-0.117-0.567c-0.051-0.339-0.086-0.791-0.088-1.244c0.003-0.453,0.037-0.906,0.088-1.244
		C76.047,13.279,76.113,13.052,76.113,13.052z"/>
	<path fill-rule="evenodd" clip-rule="evenodd" d="M77.813,13.052c0,0,0.066,0.227,0.117,0.568c0.051,0.338,0.086,0.791,0.086,1.244
		c0,0.453-0.035,0.905-0.086,1.244c-0.051,0.341-0.117,0.567-0.117,0.567s-0.069-0.227-0.12-0.567
		c-0.051-0.339-0.086-0.791-0.086-1.244c0-0.453,0.035-0.906,0.088-1.244C77.744,13.279,77.813,13.052,77.813,13.052"/>
	<path fill="none" stroke="#FFFFFF" stroke-width="0.2351" stroke-miterlimit="10" d="M77.813,13.052c0,0,0.066,0.227,0.117,0.568
		c0.051,0.338,0.086,0.791,0.086,1.244c0,0.453-0.035,0.905-0.086,1.244c-0.051,0.341-0.117,0.567-0.117,0.567
		s-0.069-0.227-0.12-0.567c-0.051-0.339-0.086-0.791-0.086-1.244c0-0.453,0.035-0.906,0.088-1.244
		C77.744,13.279,77.813,13.052,77.813,13.052z"/>
	<path fill-rule="evenodd" clip-rule="evenodd" d="M59.341,14.856c0,0.341-0.277,0.615-0.615,0.615
		c-0.341,0-0.619-0.274-0.619-0.615c0-0.341,0.277-0.615,0.619-0.615C59.064,14.241,59.341,14.515,59.341,14.856"/>
	<circle fill="none" stroke="#FFFFFF" stroke-width="0.2351" stroke-miterlimit="10" cx="58.724" cy="14.856" r="0.617"/>
	<rect x="58.541" y="22.317" fill-rule="evenodd" clip-rule="evenodd" width="0.365" height="1.644"/>
	
		<rect x="58.541" y="22.317" fill="none" stroke="#FFFFFF" stroke-width="0.2351" stroke-miterlimit="10" width="0.365" height="1.644"/>
	<path fill-rule="evenodd" clip-rule="evenodd" d="M59.162,22.19c0,0.341-0.197,0.615-0.437,0.615c-0.243,0-0.44-0.274-0.44-0.615
		v-6.719c0-0.338,0.197-0.616,0.44-0.616c0.239,0,0.437,0.277,0.437,0.616V22.19z"/>
	<path fill="none" stroke="#FFFFFF" stroke-width="0.2351" stroke-miterlimit="10" d="M59.162,22.19
		c0,0.341-0.197,0.615-0.437,0.615c-0.243,0-0.44-0.274-0.44-0.615v-6.719c0-0.338,0.197-0.616,0.44-0.616
		c0.239,0,0.437,0.277,0.437,0.616V22.19z"/>
	<path fill-rule="evenodd" clip-rule="evenodd" d="M64.703,14.856c0,0.341-0.277,0.615-0.615,0.615
		c-0.341,0-0.619-0.274-0.619-0.615c0-0.341,0.277-0.615,0.619-0.615C64.426,14.241,64.703,14.515,64.703,14.856"/>
	<circle fill="none" stroke="#FFFFFF" stroke-width="0.2351" stroke-miterlimit="10" cx="64.086" cy="14.856" r="0.617"/>
	<rect x="63.904" y="22.317" fill-rule="evenodd" clip-rule="evenodd" width="0.367" height="1.644"/>
	
		<rect x="63.904" y="22.317" fill="none" stroke="#FFFFFF" stroke-width="0.2351" stroke-miterlimit="10" width="0.367" height="1.644"/>
	<path fill-rule="evenodd" clip-rule="evenodd" d="M64.525,22.19c0,0.341-0.197,0.615-0.437,0.615c-0.243,0-0.437-0.274-0.437-0.615
		v-6.719c0-0.338,0.194-0.616,0.437-0.616c0.239,0,0.437,0.277,0.437,0.616V22.19z"/>
	<path fill="none" stroke="#FFFFFF" stroke-width="0.2351" stroke-miterlimit="10" d="M64.525,22.19
		c0,0.341-0.197,0.615-0.437,0.615c-0.243,0-0.437-0.274-0.437-0.615v-6.719c0-0.338,0.194-0.616,0.437-0.616
		c0.239,0,0.437,0.277,0.437,0.616V22.19z"/>
</g>
<g>
	<path d="M37.778,128.646c0.791-0.135,1.904-0.236,3.47-0.236c1.584,0,2.712,0.303,3.47,0.91c0.725,0.572,1.213,1.516,1.213,2.627
		c0,1.112-0.371,2.055-1.045,2.695c-0.876,0.826-2.173,1.196-3.689,1.196c-0.337,0-0.64-0.017-0.876-0.051v4.059h-2.544V128.646z
		 M40.322,133.801c0.219,0.051,0.488,0.067,0.859,0.067c1.364,0,2.206-0.691,2.206-1.853c0-1.045-0.725-1.668-2.004-1.668
		c-0.522,0-0.877,0.051-1.061,0.101V133.801z"/>
	<path d="M48.811,136.934l-0.809,2.914h-2.662l3.471-11.353h3.369l3.521,11.353h-2.763l-0.876-2.914H48.811z M51.691,135.013
		l-0.707-2.408c-0.202-0.674-0.404-1.516-0.573-2.19h-0.033c-0.168,0.674-0.337,1.533-0.522,2.19l-0.674,2.408H51.691z"/>
	<path d="M57.217,139.848v-11.353h2.998l2.358,4.161c0.674,1.196,1.348,2.611,1.853,3.891h0.051
		c-0.169-1.499-0.219-3.032-0.219-4.733v-3.319h2.358v11.353h-2.695l-2.426-4.379c-0.674-1.213-1.415-2.678-1.971-4.009l-0.05,0.017
		c0.067,1.499,0.1,3.099,0.1,4.952v3.419H57.217z"/>
	<path d="M71.029,130.651H67.98v-2.156h8.725v2.156h-3.1v9.197h-2.577V130.651z"/>
	<path d="M78.069,137.203c0.69,0.354,1.752,0.707,2.846,0.707c1.179,0,1.803-0.488,1.803-1.23c0-0.707-0.539-1.111-1.904-1.6
		c-1.886-0.657-3.116-1.701-3.116-3.352c0-1.937,1.617-3.419,4.295-3.419c1.28,0,2.224,0.27,2.897,0.573l-0.572,2.072
		c-0.455-0.219-1.264-0.539-2.375-0.539c-1.112,0-1.651,0.505-1.651,1.095c0,0.725,0.64,1.045,2.106,1.6
		c2.005,0.741,2.947,1.785,2.947,3.386c0,1.903-1.465,3.52-4.581,3.52c-1.297,0-2.577-0.337-3.217-0.691L78.069,137.203z"/>
</g>
</svg>
