<?xml version="1.0" encoding="utf-8"?>
<!-- Generator: Adobe Illustrator 17.0.0, SVG Export Plug-In . SVG Version: 6.00 Build 0)  -->
<!DOCTYPE svg PUBLIC "-//W3C//DTD SVG 1.1//EN" "http://www.w3.org/Graphics/SVG/1.1/DTD/svg11.dtd">
<svg version="1.1" id="Layer_1" xmlns="http://www.w3.org/2000/svg" xmlns:xlink="http://www.w3.org/1999/xlink" x="0px" y="0px"
	 width="125px" height="150px" viewBox="0 0 125 150" enable-background="new 0 0 125 150" xml:space="preserve">
<path d="M67.327,16.75H58.17c-0.787,0-1.425-0.638-1.425-1.425V14.28c0-0.787,0.638-1.425,1.425-1.425h9.157
	c0.787,0,1.425,0.638,1.425,1.425v1.045C68.752,16.112,68.114,16.75,67.327,16.75"/>
<path fill="none" stroke="#FFFFFF" stroke-width="0.3488" stroke-miterlimit="10" d="M67.327,16.75H58.17
	c-0.787,0-1.425-0.638-1.425-1.425V14.28c0-0.787,0.638-1.425,1.425-1.425h9.157c0.787,0,1.425,0.638,1.425,1.425v1.045
	C68.752,16.112,68.114,16.75,67.327,16.75z"/>
<g>
	<path d="M74.399,26.293H51.098v-7.466c0-3.298,3.091-5.972,6.904-5.972h9.493c3.813,0,6.904,2.674,6.904,5.972V26.293z
		 M53.687,24.053H71.81v-4.479c0-2.474-2.318-4.479-5.178-4.479h-7.767c-2.859,0-5.178,2.005-5.178,4.479V24.053z"/>
	<path fill="none" stroke="#FFFFFF" stroke-width="0.4012" stroke-miterlimit="10" d="M74.399,26.293H51.098v-7.466
		c0-3.298,3.091-5.972,6.904-5.972h9.493c3.813,0,6.904,2.674,6.904,5.972V26.293z M53.687,24.053H71.81v-4.479
		c0-2.474-2.318-4.479-5.178-4.479h-7.767c-2.859,0-5.178,2.005-5.178,4.479V24.053z"/>
	<path d="M84.323,106.173H41.174c-5.719,0-10.356-4.011-10.356-8.958V30.772c0-3.71,3.477-6.719,7.767-6.719h48.327
		c4.289,0,7.766,3.008,7.766,6.719v66.443C94.679,102.163,90.043,106.173,84.323,106.173"/>
	<path fill="none" stroke="#FFFFFF" stroke-width="0.8028" stroke-miterlimit="10" d="M84.323,106.173H41.174
		c-5.719,0-10.356-4.011-10.356-8.958V30.772c0-3.71,3.477-6.719,7.767-6.719h48.327c4.289,0,7.766,3.008,7.766,6.719v66.443
		C94.679,102.163,90.043,106.173,84.323,106.173z"/>
	<path d="M85.047,106.173H40.45c-5.319,0-9.632-4.312-9.632-9.632v-6.792h63.861v6.792
		C94.679,101.861,90.366,106.173,85.047,106.173"/>
	<path fill="none" stroke="#FFFFFF" stroke-width="0.8028" stroke-miterlimit="10" d="M85.047,106.173H40.45
		c-5.319,0-9.632-4.312-9.632-9.632v-6.792h63.861v6.792C94.679,101.861,90.366,106.173,85.047,106.173z"/>
	<path d="M78.282,51.676H47.215c-4.766,0-8.63-3.343-8.63-7.466V24.053h48.327V44.21C86.912,48.333,83.048,51.676,78.282,51.676"/>
	<path fill="none" stroke="#FFFFFF" stroke-width="0.8028" stroke-miterlimit="10" d="M78.282,51.676H47.215
		c-4.766,0-8.63-3.343-8.63-7.466V24.053h48.327V44.21C86.912,48.333,83.048,51.676,78.282,51.676z"/>
	<path d="M94.679,93.482L94.679,93.482V48.689h6.904V87.51C101.583,90.808,98.492,93.482,94.679,93.482"/>
	<path fill="none" stroke="#FFFFFF" stroke-width="0.8028" stroke-miterlimit="10" d="M94.679,93.482L94.679,93.482V48.689h6.904
		V87.51C101.583,90.808,98.492,93.482,94.679,93.482z"/>
	<path d="M94.679,93.482L94.679,93.482v-7.466h6.904v1.494C101.583,90.808,98.492,93.482,94.679,93.482"/>
	<path fill="none" stroke="#FFFFFF" stroke-width="0.8028" stroke-miterlimit="10" d="M94.679,93.482L94.679,93.482v-7.466h6.904
		v1.494C101.583,90.808,98.492,93.482,94.679,93.482z"/>
	<path d="M30.818,93.482L30.818,93.482V48.689h-6.904V87.51C23.915,90.808,27.005,93.482,30.818,93.482"/>
	<path fill="none" stroke="#FFFFFF" stroke-width="0.8028" stroke-miterlimit="10" d="M30.818,93.482L30.818,93.482V48.689h-6.904
		V87.51C23.915,90.808,27.005,93.482,30.818,93.482z"/>
	<path d="M30.818,93.482L30.818,93.482v-7.466h-6.904v1.494C23.915,90.808,27.005,93.482,30.818,93.482"/>
	<path fill="none" stroke="#FFFFFF" stroke-width="0.8028" stroke-miterlimit="10" d="M30.818,93.482L30.818,93.482v-7.466h-6.904
		v1.494C23.915,90.808,27.005,93.482,30.818,93.482z"/>
	<rect x="46.352" y="24.053" width="6.904" height="49.272"/>
	
		<rect x="46.352" y="24.053" fill="none" stroke="#FFFFFF" stroke-width="0.8028" stroke-miterlimit="10" width="6.904" height="49.272"/>
	<path d="M53.256,52.795h-6.904v-5.226h6.904V52.795z M54.119,46.076h-8.63c-0.476,0-0.863,0.334-0.863,0.747v6.719
		c0,0.412,0.386,0.746,0.863,0.746h8.63c0.477,0,0.863-0.334,0.863-0.746v-6.719C54.982,46.411,54.596,46.076,54.119,46.076"/>
	<path fill="none" stroke="#FFFFFF" stroke-width="0.8028" stroke-miterlimit="10" d="M53.256,52.795h-6.904v-5.226h6.904V52.795z
		 M54.119,46.076h-8.63c-0.476,0-0.863,0.334-0.863,0.747v6.719c0,0.412,0.386,0.746,0.863,0.746h8.63
		c0.477,0,0.863-0.334,0.863-0.746v-6.719C54.982,46.411,54.596,46.076,54.119,46.076z"/>
	<rect x="72.241" y="24.053" width="6.904" height="49.272"/>
	
		<rect x="72.241" y="24.053" fill="none" stroke="#FFFFFF" stroke-width="0.8028" stroke-miterlimit="10" width="6.904" height="49.272"/>
	<path d="M79.145,52.795h-6.904v-5.226h6.904V52.795z M80.008,46.076h-8.63c-0.476,0-0.863,0.334-0.863,0.747v6.719
		c0,0.412,0.387,0.746,0.863,0.746h8.63c0.477,0,0.863-0.334,0.863-0.746v-6.719C80.871,46.411,80.485,46.076,80.008,46.076"/>
	<path fill="none" stroke="#FFFFFF" stroke-width="0.8028" stroke-miterlimit="10" d="M79.145,52.795h-6.904v-5.226h6.904V52.795z
		 M80.008,46.076h-8.63c-0.476,0-0.863,0.334-0.863,0.747v6.719c0,0.412,0.387,0.746,0.863,0.746h8.63
		c0.477,0,0.863-0.334,0.863-0.746v-6.719C80.871,46.411,80.485,46.076,80.008,46.076z"/>
	<path d="M84.746,98.335H40.752c-3.103,0-5.619-2.516-5.619-5.619V74.091c0-3.103,2.516-5.618,5.619-5.618h43.994
		c3.103,0,5.619,2.515,5.619,5.618v18.625C90.364,95.819,87.849,98.335,84.746,98.335"/>
	<path fill="none" stroke="#FFFFFF" stroke-width="0.8028" stroke-miterlimit="10" d="M84.746,98.335H40.752
		c-3.103,0-5.619-2.516-5.619-5.619V74.091c0-3.103,2.516-5.618,5.619-5.618h43.994c3.103,0,5.619,2.515,5.619,5.618v18.625
		C90.364,95.819,87.849,98.335,84.746,98.335z"/>
	<path d="M85.618,73.885H39.88c-0.715,0-1.294-0.501-1.294-1.12s0.58-1.12,1.294-1.12h45.738c0.715,0,1.294,0.501,1.294,1.12
		S86.333,73.885,85.618,73.885"/>
	<path fill="none" stroke="#FFFFFF" stroke-width="0.8028" stroke-miterlimit="10" d="M85.618,73.885H39.88
		c-0.715,0-1.294-0.501-1.294-1.12s0.58-1.12,1.294-1.12h45.738c0.715,0,1.294,0.501,1.294,1.12S86.333,73.885,85.618,73.885z"/>
	<path d="M41.174,77.431L41.174,77.431c-0.715,0-1.295-0.501-1.295-1.12l0.347-2.695c0.049-0.378,0.418-0.664,0.857-0.664h0.181
		c0.439,0,0.809,0.286,0.858,0.664l0.346,2.695C42.469,76.93,41.889,77.431,41.174,77.431"/>
	<path fill="none" stroke="#FFFFFF" stroke-width="0.8028" stroke-miterlimit="10" d="M41.174,77.431L41.174,77.431
		c-0.715,0-1.295-0.501-1.295-1.12l0.347-2.695c0.049-0.378,0.418-0.664,0.857-0.664h0.181c0.439,0,0.809,0.286,0.858,0.664
		l0.346,2.695C42.469,76.93,41.889,77.431,41.174,77.431z"/>
</g>
<path d="M15.506,136.749l-0.808,2.914h-2.662l3.47-11.353h3.37l3.52,11.353h-2.763l-0.876-2.914H15.506z M18.387,134.828
	l-0.708-2.408c-0.202-0.674-0.404-1.516-0.572-2.19h-0.033c-0.168,0.674-0.337,1.533-0.522,2.19l-0.674,2.408H18.387z"/>
<path d="M32.25,139.528c-0.471,0.236-1.533,0.488-2.915,0.488c-3.924,0-5.945-2.442-5.945-5.676c0-3.874,2.762-6.03,6.198-6.03
	c1.331,0,2.341,0.27,2.796,0.505l-0.522,2.038c-0.522-0.219-1.247-0.421-2.156-0.421c-2.038,0-3.622,1.23-3.622,3.756
	c0,2.274,1.348,3.706,3.639,3.706c0.776,0,1.635-0.168,2.139-0.371L32.25,139.528z"/>
<path d="M42.271,139.528c-0.471,0.236-1.533,0.488-2.913,0.488c-3.925,0-5.947-2.442-5.947-5.676c0-3.874,2.763-6.03,6.199-6.03
	c1.33,0,2.342,0.27,2.796,0.505l-0.522,2.038c-0.522-0.219-1.246-0.421-2.156-0.421c-2.038,0-3.621,1.23-3.621,3.756
	c0,2.274,1.347,3.706,3.638,3.706c0.775,0,1.634-0.168,2.139-0.371L42.271,139.528z"/>
<path d="M50.711,134.862h-4.178v2.695H51.2v2.105h-7.244v-11.353h7.008v2.105h-4.431v2.358h4.178V134.862z"/>
<path d="M53.035,137.203c0.691,0.353,1.752,0.707,2.847,0.707c1.179,0,1.803-0.488,1.803-1.23c0-0.707-0.54-1.111-1.904-1.6
	c-1.887-0.657-3.116-1.701-3.116-3.352c0-1.937,1.617-3.419,4.295-3.419c1.28,0,2.224,0.27,2.897,0.573l-0.573,2.072
	c-0.455-0.219-1.263-0.539-2.375-0.539c-1.111,0-1.65,0.505-1.65,1.095c0,0.725,0.64,1.045,2.105,1.6
	c2.006,0.741,2.948,1.785,2.948,3.386c0,1.903-1.466,3.52-4.581,3.52c-1.297,0-2.577-0.337-3.217-0.691L53.035,137.203z"/>
<path d="M61.228,137.203c0.69,0.353,1.752,0.707,2.846,0.707c1.179,0,1.802-0.488,1.802-1.23c0-0.707-0.538-1.111-1.903-1.6
	c-1.886-0.657-3.116-1.701-3.116-3.352c0-1.937,1.617-3.419,4.295-3.419c1.28,0,2.223,0.27,2.897,0.573l-0.572,2.072
	c-0.455-0.219-1.264-0.539-2.375-0.539c-1.112,0-1.651,0.505-1.651,1.095c0,0.725,0.64,1.045,2.106,1.6
	c2.004,0.741,2.947,1.785,2.947,3.386c0,1.903-1.465,3.52-4.582,3.52c-1.297,0-2.577-0.337-3.217-0.691L61.228,137.203z"/>
<path d="M80.632,134.053c0,3.723-2.257,5.979-5.576,5.979c-3.37,0-5.34-2.543-5.34-5.777c0-3.402,2.173-5.946,5.526-5.946
	C78.728,128.309,80.632,130.92,80.632,134.053z M72.429,134.205c0,2.224,1.045,3.79,2.763,3.79c1.735,0,2.728-1.651,2.728-3.858
	c0-2.038-0.976-3.79-2.745-3.79C73.439,130.348,72.429,131.998,72.429,134.205z"/>
<path d="M82.317,128.545c0.825-0.135,2.054-0.236,3.419-0.236c1.684,0,2.864,0.253,3.672,0.892c0.674,0.539,1.045,1.331,1.045,2.375
	c0,1.449-1.027,2.443-2.005,2.796v0.051c0.792,0.32,1.23,1.078,1.516,2.123c0.354,1.28,0.708,2.762,0.927,3.2h-2.628
	c-0.186-0.32-0.455-1.246-0.791-2.645c-0.303-1.415-0.791-1.803-1.836-1.819H84.86v4.464h-2.543V128.545z M84.86,133.43h1.01
	c1.28,0,2.038-0.64,2.038-1.634c0-1.045-0.708-1.567-1.886-1.584c-0.623,0-0.978,0.051-1.162,0.084V133.43z"/>
<path d="M94.882,128.309v11.353h-2.577v-11.353H94.882z"/>
<path d="M103.861,134.862h-4.179v2.695h4.667v2.105h-7.243v-11.353h7.007v2.105h-4.431v2.358h4.179V134.862z"/>
<path d="M106.185,137.203c0.691,0.353,1.752,0.707,2.847,0.707c1.178,0,1.802-0.488,1.802-1.23c0-0.707-0.539-1.111-1.904-1.6
	c-1.886-0.657-3.115-1.701-3.115-3.352c0-1.937,1.616-3.419,4.295-3.419c1.28,0,2.223,0.27,2.896,0.573l-0.572,2.072
	c-0.455-0.219-1.263-0.539-2.375-0.539s-1.65,0.505-1.65,1.095c0,0.725,0.64,1.045,2.106,1.6c2.004,0.741,2.946,1.785,2.946,3.386
	c0,1.903-1.465,3.52-4.581,3.52c-1.297,0-2.577-0.337-3.217-0.691L106.185,137.203z"/>
</svg>
