<?xml version="1.0" encoding="utf-8"?>
<!-- Generator: Adobe Illustrator 17.0.0, SVG Export Plug-In . SVG Version: 6.00 Build 0)  -->
<!DOCTYPE svg PUBLIC "-//W3C//DTD SVG 1.1//EN" "http://www.w3.org/Graphics/SVG/1.1/DTD/svg11.dtd">
<svg version="1.1" xmlns="http://www.w3.org/2000/svg" xmlns:xlink="http://www.w3.org/1999/xlink" x="0px" y="0px" width="33px"
	 height="33px" viewBox="0 0 33 33" enable-background="new 0 0 33 33" xml:space="preserve">
<g id="BACKGROUND">
</g>
<g id="ELEMENTS">
	<g>
		<g>
			<path d="M32,16.608c0-8.445-6.846-15.291-15.291-15.291c-8.445,0-15.291,6.846-15.291,15.291c0,7.632,5.592,13.958,12.902,15.105
				V21.028h-3.883v-4.42h3.883v-3.369c0-3.832,2.283-5.949,5.776-5.949c1.673,0,3.423,0.299,3.423,0.299v3.763H21.59
				c-1.9,0-2.492,1.179-2.492,2.388v2.868h4.241l-0.678,4.42h-3.563v10.685C26.408,30.566,32,24.24,32,16.608z"/>
			<path fill="#FFFFFF" d="M22.661,21.028l0.678-4.42h-4.241v-2.868c0-1.209,0.592-2.388,2.492-2.388h1.928V7.588
				c0,0-1.75-0.299-3.423-0.299c-3.493,0-5.776,2.117-5.776,5.949v3.369h-3.883v4.42h3.883v10.685
				c0.779,0.122,1.576,0.186,2.389,0.186c0.813,0,1.611-0.064,2.389-0.186V21.028H22.661z"/>
		</g>
	</g>
</g>
<g id="TEXT">
</g>
</svg>
