<?xml version="1.0" encoding="utf-8"?>
<!-- Generator: Adobe Illustrator 17.0.0, SVG Export Plug-In . SVG Version: 6.00 Build 0)  -->
<!DOCTYPE svg PUBLIC "-//W3C//DTD SVG 1.1//EN" "http://www.w3.org/Graphics/SVG/1.1/DTD/svg11.dtd">
<svg version="1.1" xmlns="http://www.w3.org/2000/svg" xmlns:xlink="http://www.w3.org/1999/xlink" x="0px" y="0px" width="33px"
	 height="33px" viewBox="0 0 33 33" enable-background="new 0 0 33 33" xml:space="preserve">
<g id="BACKGROUND">
</g>
<g id="ELEMENTS">
	<g>
		<circle cx="16.703" cy="16.608" r="15.291"/>
		<g>
			<g>
				<circle fill="#FFFFFF" cx="21.449" cy="11.874" r="1.051"/>
				<path fill="#FFFFFF" d="M16.777,12.171c-2.435,0-4.415,1.981-4.415,4.415c0,2.434,1.981,4.415,4.415,4.415
					c2.435,0,4.415-1.981,4.415-4.415C21.192,14.152,19.211,12.171,16.777,12.171z M16.777,19.415c-1.56,0-2.828-1.269-2.828-2.828
					c0-1.56,1.269-2.828,2.828-2.828s2.828,1.269,2.828,2.828C19.605,18.146,18.336,19.415,16.777,19.415z"/>
				<path fill="#FFFFFF" d="M20.282,25.551h-7.158c-2.97,0-5.385-2.416-5.385-5.385v-7.158c0-2.97,2.416-5.385,5.385-5.385h7.158
					c2.969,0,5.386,2.416,5.386,5.385v7.158C25.667,23.135,23.251,25.551,20.282,25.551z M13.124,9.309
					c-2.04,0-3.699,1.659-3.699,3.699v7.158c0,2.04,1.659,3.699,3.699,3.699h7.158c2.04,0,3.699-1.659,3.699-3.699v-7.158
					c0-2.04-1.659-3.699-3.699-3.699H13.124z"/>
			</g>
		</g>
	</g>
</g>
<g id="TEXT">
</g>
</svg>
