<?xml version="1.0" encoding="utf-8"?>
<!-- Generator: Adobe Illustrator 17.0.0, SVG Export Plug-In . SVG Version: 6.00 Build 0)  -->
<!DOCTYPE svg PUBLIC "-//W3C//DTD SVG 1.1//EN" "http://www.w3.org/Graphics/SVG/1.1/DTD/svg11.dtd">
<svg version="1.1" xmlns="http://www.w3.org/2000/svg" xmlns:xlink="http://www.w3.org/1999/xlink" x="0px" y="0px" width="33px"
	 height="33px" viewBox="0 0 33 33" enable-background="new 0 0 33 33" xml:space="preserve">
<g id="BACKGROUND">
</g>
<g id="ELEMENTS">
	<g>
		<g>
			<circle cx="16.513" cy="16.608" r="15.291"/>
		</g>
		<g>
			<path fill-rule="evenodd" clip-rule="evenodd" fill="#FFFFFF" d="M26.716,11.266c0-0.206-0.196-0.374-0.437-0.374h-4.737
				c-0.116-2.624-2.323-4.716-5.029-4.716c-2.706,0-4.913,2.092-5.029,4.716H6.741c-0.238,0.004-0.43,0.17-0.43,0.374
				c0,0.01,0.001,0.02,0.002,0.029H6.309l0.676,12.648c0,0.035,0.002,0.071,0.005,0.107c0,0.008,0.001,0.016,0.002,0.024L6.994,24.1
				l0.002,0.001c0.103,0.881,0.855,1.589,1.878,1.622l0.003,0.002h15.12l0.001-0.001c1.041-0.024,1.885-0.742,1.974-1.634
				l0.001-0.001l0.001-0.012c0.001-0.009,0.002-0.018,0.002-0.028c0.002-0.023,0.004-0.045,0.004-0.067l0.738-12.698h-0.001
				C26.716,11.278,26.716,11.272,26.716,11.266z M16.513,7.317c1.971,0,3.579,1.588,3.654,3.575h-7.307
				C12.935,8.905,14.541,7.317,16.513,7.317z M20.253,20.807c-0.134,0.938-0.804,1.691-1.843,2.067
				c-0.579,0.21-1.354,0.324-1.969,0.288c-0.959-0.031-1.86-0.229-2.689-0.591c-0.297-0.129-0.739-0.387-1.078-0.629
				c-0.086-0.061-0.096-0.1-0.04-0.169c0.031-0.039,0.088-0.11,0.213-0.266c0.181-0.226,0.203-0.254,0.225-0.281
				c0.058-0.075,0.152-0.082,0.245-0.02c0.01,0.006,0.01,0.006,0.018,0.011c0.015,0.01,0.015,0.01,0.051,0.034
				c0.036,0.024,0.058,0.038,0.066,0.044c0.895,0.595,1.938,0.938,2.991,0.973c1.465-0.017,2.519-0.576,2.707-1.434
				c0.208-0.944-0.666-1.76-2.375-2.215c-0.535-0.142-1.886-0.601-2.136-0.725c-1.17-0.583-1.717-1.345-1.639-2.288
				c0.119-1.306,1.548-2.281,3.355-2.287c0.808-0.001,1.614,0.141,2.388,0.418c0.274,0.098,0.763,0.324,0.932,0.431
				c0.097,0.061,0.117,0.131,0.061,0.208c-0.032,0.044-0.083,0.114-0.191,0.261l-0.002,0.002c-0.142,0.192-0.147,0.198-0.18,0.243
				c-0.057,0.074-0.124,0.08-0.226,0.026c-0.829-0.472-1.747-0.71-2.758-0.727c-1.257,0.021-2.199,0.656-2.261,1.522
				c-0.017,0.782,0.674,1.351,2.166,1.787C19.312,18.312,20.471,19.28,20.253,20.807z"/>
		</g>
	</g>
</g>
<g id="TEXT">
</g>
</svg>
