<?xml version="1.0" encoding="utf-8"?>
<!-- Generator: Adobe Illustrator 17.0.0, SVG Export Plug-In . SVG Version: 6.00 Build 0)  -->
<!DOCTYPE svg PUBLIC "-//W3C//DTD SVG 1.1//EN" "http://www.w3.org/Graphics/SVG/1.1/DTD/svg11.dtd">
<svg version="1.1" xmlns="http://www.w3.org/2000/svg" xmlns:xlink="http://www.w3.org/1999/xlink" x="0px" y="0px" width="33px"
	 height="33px" viewBox="0 0 33 33" enable-background="new 0 0 33 33" xml:space="preserve">
<g id="BACKGROUND">
</g>
<g id="ELEMENTS">
	<g>
		<circle cx="16.709" cy="16.608" r="15.291"/>
		<path fill="#FFFFFF" d="M24.649,14.846c-0.156,0.015-0.313,0.023-0.47,0.024c-1.724,0-3.331-0.869-4.275-2.311v7.868
			c0,3.212-2.604,5.815-5.815,5.815c-3.212,0-5.815-2.604-5.815-5.815s2.604-5.815,5.815-5.815l0,0c0.121,0,0.24,0.011,0.36,0.018
			v2.866c-0.119-0.014-0.237-0.036-0.36-0.036c-1.639,0-2.968,1.329-2.968,2.968c0,1.639,1.329,2.968,2.968,2.968
			c1.64,0,3.087-1.292,3.087-2.931l0.029-13.363h2.742c0.259,2.459,2.241,4.379,4.706,4.559v3.185"/>
	</g>
</g>
<g id="TEXT">
</g>
</svg>
